<svg width="25" height="25" viewBox="0 0 25 25" fill="none" xmlns="http://www.w3.org/2000/svg">
<path d="M21.2499 0.833336H3.74992C2.13909 0.833336 0.833252 2.13917 0.833252 3.75V21.25C0.833252 22.8608 2.13909 24.1667 3.74992 24.1667H21.2499C22.8607 24.1667 24.1666 22.8608 24.1666 21.25V3.75C24.1666 2.13917 22.8607 0.833336 21.2499 0.833336Z" stroke="#222222" stroke-width="1.2" stroke-linecap="round" stroke-linejoin="round"/>
<path d="M7.83325 18.3334V6.66678H14.0555C14.8806 6.66678 15.6719 6.97407 16.2554 7.52105C16.8388 8.06803 17.1666 8.8099 17.1666 9.58345C17.1666 10.357 16.8388 11.0989 16.2554 11.6458C15.6719 12.1928 14.8806 12.5001 14.0555 12.5001H7.83325" stroke="#222222" stroke-width="1.2" stroke-linecap="round" stroke-linejoin="round"/>
</svg>
