<svg width="14" height="14" viewBox="0 0 14 14" fill="none" xmlns="http://www.w3.org/2000/svg">
<path d="M6.99998 3.00952C5.56684 3.00952 4.40088 4.17549 4.40088 5.60863C4.40088 7.04177 5.56684 8.20773 6.99998 8.20773C8.43312 8.20773 9.59909 7.04177 9.59909 5.60863C9.59909 4.17549 8.43315 3.00952 6.99998 3.00952ZM6.99998 7.11338C6.17026 7.11338 5.49523 6.43834 5.49523 5.60863C5.49523 4.77891 6.17026 4.10387 6.99998 4.10387C7.8297 4.10387 8.50474 4.77891 8.50474 5.60863C8.50474 6.43834 7.8297 7.11338 6.99998 7.11338Z" fill="#717171"/>
<path d="M7.00021 0C3.90761 0 1.3916 2.51604 1.3916 5.60861V5.76365C1.3916 7.32771 2.28831 9.15034 4.05691 11.1808C5.339 12.6528 6.60318 13.6791 6.65634 13.7221L7.00021 14L7.34409 13.7222C7.39727 13.6792 8.66146 12.6528 9.94352 11.1808C11.7121 9.15034 12.6088 7.32774 12.6088 5.76368V5.60864C12.6088 2.51604 10.0928 0 7.00021 0ZM11.5145 5.76368C11.5145 8.40686 8.10878 11.6065 7.00021 12.5778C5.89134 11.6062 2.48595 8.40667 2.48595 5.76368V5.60864C2.48595 3.11948 4.51106 1.09438 7.00021 1.09438C9.48937 1.09438 11.5145 3.11948 11.5145 5.60864V5.76368Z" fill="#717171"/>
</svg>
