<svg xmlns="http://www.w3.org/2000/svg">
    <defs>
        <g id="logo">
            <path d="M10.8489 13.2417H7.13961V20.1376C7.13961 20.7073 7.28798 21.127 7.55505 21.3969C7.85179 21.6667 8.26723 21.8166 8.80136 21.8466C9.3355 21.8766 10.018 21.8766 10.8192 21.8166V25.6843C7.91114 26.0141 5.86362 25.7443 4.67665 24.8448C3.48968 23.9753 2.8962 22.3863 2.8962 20.1076V13.2117H0.0771484V9.13407H2.92587V5.80603L7.16928 4.51678V9.16405H10.8786V13.2417H10.8489Z"
                  fill="black"/>
            <path d="M22.9562 8.6843C24.7366 8.6843 26.2203 9.28395 27.4073 10.5132C28.5646 11.7425 29.1581 13.3915 29.1581 15.5503V25.6843H24.9147V16.06C24.9147 14.9506 24.6179 14.1111 24.0244 13.5115C23.431 12.9118 22.6594 12.642 21.6505 12.642C20.5526 12.642 19.692 12.9718 19.0392 13.6614C18.3863 14.351 18.0599 15.3704 18.0599 16.7496V25.6843H13.8462V2.50793H18.0896V10.9929C19.0985 9.43386 20.7306 8.6843 22.9562 8.6843Z"
                  fill="black"/>
            <path d="M36.3389 19.1782C36.9027 21.2469 38.4458 22.2963 40.9681 22.2963C42.5705 22.2963 43.8168 21.7566 44.6477 20.6473L48.0602 22.6261C46.4282 24.9947 44.0542 26.164 40.9088 26.164C38.2084 26.164 36.0125 25.3245 34.3804 23.6755C32.7484 22.0265 31.9175 19.9277 31.9175 17.4092C31.9175 14.9207 32.7187 12.8219 34.3508 11.1729C35.9532 9.49385 38.0304 8.68433 40.5823 8.68433C42.986 8.68433 44.9741 9.52383 46.5469 11.2028C48.1196 12.8819 48.8911 14.9506 48.8911 17.4392C48.8911 17.9789 48.8318 18.5785 48.7131 19.2081L36.3389 19.1782ZM36.2499 15.8501H44.618C44.3806 14.7108 43.8762 13.8713 43.1343 13.3316C42.3925 12.7919 41.5319 12.4921 40.5527 12.4921C39.4251 12.4921 38.4755 12.7919 37.7336 13.3616C36.9918 13.9912 36.517 14.8007 36.2499 15.8501Z"
                  fill="black"/>
            <path d="M55.2413 19.1782C55.8051 21.2469 57.3481 22.2963 59.8705 22.2963C61.4729 22.2963 62.7192 21.7566 63.5501 20.6473L66.9626 22.6261C65.3305 24.9947 62.9566 26.164 59.8111 26.164C57.1108 26.164 54.9149 25.3245 53.2828 23.6755C51.6507 22.0265 50.8198 19.9277 50.8198 17.4092C50.8198 14.9207 51.621 12.8219 53.2531 11.1729C54.8555 9.49385 56.9327 8.68433 59.4847 8.68433C61.8883 8.68433 63.8765 9.52383 65.4492 11.2028C67.0219 12.8819 67.7935 14.9506 67.7935 17.4392C67.7935 17.9789 67.7341 18.5785 67.6154 19.2081L55.2413 19.1782ZM55.1819 15.8501H63.5501C63.3127 14.7108 62.8082 13.8713 62.0663 13.3316C61.3245 12.7919 60.4639 12.4921 59.4847 12.4921C58.3571 12.4921 57.4075 12.7919 56.6656 13.3616C55.9238 13.9912 55.4193 14.8007 55.1819 15.8501Z"
                  fill="black"/>
            <path d="M80.7614 9.13403H85.2719L79.3074 25.6843C78.4468 28.0829 77.3192 29.7919 75.9245 30.8713C74.5001 31.9506 72.7494 32.4303 70.6722 32.3104V28.3527C71.7998 28.3827 72.7197 28.1429 73.3725 27.6332C74.0253 27.1235 74.5595 26.3139 74.9749 25.1746L68.2686 9.13403H72.8977L77.1708 20.2575L80.7614 9.13403Z"
                  fill="black"/>
            <path d="M90.1978 19.1782C90.7616 21.2469 92.3047 22.2963 94.827 22.2963C96.4294 22.2963 97.6757 21.7566 98.5066 20.6473L101.919 22.6261C100.287 24.9947 97.9131 26.164 94.7677 26.164C92.0673 26.164 89.8714 25.3245 88.2393 23.6755C86.6073 22.0265 85.7764 19.9277 85.7764 17.4092C85.7764 14.9207 86.5776 12.8219 88.2097 11.1729C89.8121 9.49385 91.8893 8.68433 94.4412 8.68433C96.8449 8.68433 98.833 9.52383 100.376 11.2028C101.949 12.8819 102.72 14.9506 102.72 17.4392C102.72 17.9789 102.661 18.5785 102.542 19.2081L90.1978 19.1782ZM90.1088 15.8501H98.4769C98.2395 14.7108 97.7351 13.8713 96.9932 13.3316C96.2514 12.7919 95.3908 12.4921 94.4116 12.4921C93.2839 12.4921 92.3344 12.7919 91.5925 13.3616C90.8507 13.9912 90.3759 14.8007 90.1088 15.8501Z"
                  fill="black"/>
            <path d="M110.643 2.80776C115.332 5.26632 119.486 10.4233 121.504 15.1605C118.626 11.8624 116.341 9.79366 112.839 7.72487C111.237 6.79542 108.358 5.53616 106.4 5.08642C101.652 4.03704 99.1297 4.57672 95.4204 3.7672C93.5212 3.34745 94.3224 2.11817 95.3314 1.51852C99.4561 -0.850084 106.073 0.409175 110.643 2.80776Z"
                  fill="black"/>
        </g>
        <g id="sign-in">
            <path d="M9.41202 7.41891C10.4358 6.67225 11.1025 5.46387 11.1025 4.10256C11.1025 1.84041 9.26208 0 6.99993 0C4.73777 0 2.89737 1.84041 2.89737 4.10256C2.89737 5.46387 3.56402 6.67225 4.58784 7.41891C2.04284 8.39281 0.230713 10.8603 0.230713 13.7436C0.230713 14.9878 1.24293 16 2.48712 16H11.5127C12.7569 16 13.7691 14.9878 13.7691 13.7436C13.7691 10.8603 11.957 8.39281 9.41202 7.41891ZM4.12815 4.10256C4.12815 2.51906 5.41643 1.23078 6.99993 1.23078C8.58343 1.23078 9.87171 2.51906 9.87171 4.10256C9.87171 5.68606 8.58343 6.97437 6.99993 6.97437C5.41643 6.97437 4.12815 5.68606 4.12815 4.10256ZM11.5127 14.7692H2.48712C1.92159 14.7692 1.46149 14.3091 1.46149 13.7436C1.46149 10.6896 3.94599 8.20509 6.99996 8.20509C10.0539 8.20509 12.5384 10.6896 12.5384 13.7436C12.5384 14.3091 12.0783 14.7692 11.5127 14.7692Z"
                  fill="white"/>
        </g>
        <g id="search">
            <g clip-path="url(#clip0)">
                <path d="M8.80758 0C3.95121 0 0 3.95121 0 8.80758C0 13.6642 3.95121 17.6152 8.80758 17.6152C13.6642 17.6152 17.6152 13.6642 17.6152 8.80758C17.6152 3.95121 13.6642 0 8.80758 0ZM8.80758 15.9892C4.8477 15.9892 1.62602 12.7675 1.62602 8.80762C1.62602 4.84773 4.8477 1.62602 8.80758 1.62602C12.7675 1.62602 15.9891 4.8477 15.9891 8.80758C15.9891 12.7675 12.7675 15.9892 8.80758 15.9892Z"
                      fill="white"/>
                <path d="M19.7617 18.6122L15.1005 13.951C14.7829 13.6333 14.2685 13.6333 13.9509 13.951C13.6332 14.2683 13.6332 14.7832 13.9509 15.1006L18.6121 19.7618C18.7709 19.9206 18.9788 20 19.1869 20C19.3948 20 19.6029 19.9206 19.7617 19.7618C20.0794 19.4445 20.0794 18.9296 19.7617 18.6122Z"
                      fill="white"/>
            </g>
            <defs>
                <clipPath id="clip0">
                    <rect width="20" height="20" fill="white"/>
                </clipPath>
            </defs>
        </g>
        <g id="search2">
            <path d="M8.80758 0C3.95121 0 0 3.95121 0 8.80758C0 13.6642 3.95121 17.6152 8.80758 17.6152C13.6642 17.6152 17.6152 13.6642 17.6152 8.80758C17.6152 3.95121 13.6642 0 8.80758 0ZM8.80758 15.9892C4.8477 15.9892 1.62602 12.7675 1.62602 8.80762C1.62602 4.84773 4.8477 1.62602 8.80758 1.62602C12.7675 1.62602 15.9891 4.8477 15.9891 8.80758C15.9891 12.7675 12.7675 15.9892 8.80758 15.9892Z"
                  fill="#222222"/>
            <path d="M19.762 18.6121L15.1007 13.9509C14.7831 13.6332 14.2687 13.6332 13.9511 13.9509C13.6335 14.2682 13.6335 14.7831 13.9511 15.1005L18.6124 19.7617C18.7712 19.9205 18.9791 19.9999 19.1872 19.9999C19.395 19.9999 19.6032 19.9205 19.762 19.7617C20.0796 19.4444 20.0796 18.9295 19.762 18.6121Z"
                  fill="#222222"/>
        </g>
        <g id="search3">
            <g clip-path="url(#clip0)">
                <path d="M11 0C6.03753 0 2 4.03753 2 9C2 13.9627 6.03753 18 11 18C15.9627 18 20 13.9627 20 9C20 4.03753 15.9627 0 11 0ZM11 16.3385C6.9536 16.3385 3.66154 13.0464 3.66154 9.00004C3.66154 4.95364 6.9536 1.66154 11 1.66154C15.0464 1.66154 18.3385 4.9536 18.3385 9C18.3385 13.0464 15.0464 16.3385 11 16.3385Z" fill="#717171"/>
                <path d="M20.762 19.6122L16.1007 14.9509C15.7831 14.6333 15.2687 14.6333 14.9511 14.9509C14.6335 15.2683 14.6335 15.7832 14.9511 16.1005L19.6124 20.7618C19.7712 20.9206 19.9791 21 20.1872 21C20.395 21 20.6032 20.9206 20.762 20.7618C21.0796 20.4444 21.0796 19.9295 20.762 19.6122Z" fill="#717171"/>
            </g>
            <defs>
                <clipPath id="clip0">
                    <rect width="20" height="20" fill="white"/>
                </clipPath>
            </defs>
        </g>
        <g id="header-avatar">
            <path d="M13.0152 9.27363C14.2949 8.34031 15.1283 6.82984 15.1283 5.1282C15.1283 2.30051 12.8278 0 10.0001 0C7.1724 0 4.87189 2.30051 4.87189 5.1282C4.87189 6.82984 5.70521 8.34031 6.98498 9.27363C3.80373 10.491 1.53857 13.5754 1.53857 17.1795C1.53857 18.7347 2.80385 20 4.35908 20H15.6411C17.1963 20 18.4616 18.7347 18.4616 17.1795C18.4616 13.5754 16.1965 10.491 13.0152 9.27363ZM6.41037 5.1282C6.41037 3.14883 8.02072 1.53848 10.0001 1.53848C11.9795 1.53848 13.5898 3.14883 13.5898 5.1282C13.5898 7.10758 11.9795 8.71797 10.0001 8.71797C8.02072 8.71797 6.41037 7.10758 6.41037 5.1282ZM15.6411 18.4615H4.35908C3.65217 18.4615 3.07705 17.8864 3.07705 17.1795C3.07705 13.362 6.18267 10.2564 10.0001 10.2564C13.8176 10.2564 16.9232 13.362 16.9232 17.1795C16.9232 17.8864 16.3481 18.4615 15.6411 18.4615Z"
                  fill="#222222"/>
        </g>
        <g id="header-burger">
            <rect x="20" y="18" width="20" height="2" transform="rotate(-180 20 18)" fill="#222222"/>
            <rect x="20" y="10" width="20" height="2" transform="rotate(-180 20 10)" fill="#222222"/>
            <rect x="20" y="2" width="15" height="2" transform="rotate(-180 20 2)" fill="#222222"/>
        </g>
        <g id="carousel-next">
            <path d="M0.545936 6.00521L5.23092 10.7001C5.36466 10.8341 5.5429 10.9077 5.73296 10.9077C5.92323 10.9077 6.10137 10.834 6.2351 10.7001L6.66047 10.2737C6.7941 10.1399 6.86771 9.9612 6.86771 9.77064C6.86771 9.58018 6.7941 9.39544 6.66047 9.26163L3.92731 6.51675L12.6107 6.51675C13.0022 6.51675 13.3115 6.20962 13.3115 5.81719L13.3115 5.21444C13.3115 4.82201 13.0022 4.48391 12.6107 4.48391L3.8963 4.48391L6.66036 1.7237C6.79399 1.58969 6.86761 1.41583 6.86761 1.22527C6.86761 1.03492 6.79399 0.858522 6.66036 0.724613L6.235 0.299632C6.10126 0.165617 5.92312 0.0925859 5.73286 0.0925859C5.5428 0.0925858 5.36455 0.166568 5.23082 0.300583L0.54583 4.99534C0.411778 5.12978 0.338054 5.30924 0.338582 5.50001C0.33816 5.69142 0.411778 5.87099 0.545936 6.00521Z"
                  fill="#717171"/>
        </g>
        <g id="carousel-prev">
            <path d="M13.4482 4.99479L8.76322 0.299922C8.62948 0.165907 8.45124 0.0923462 8.26118 0.0923462C8.07091 0.0923462 7.89277 0.166012 7.75904 0.299922L7.33367 0.726276C7.20004 0.86008 7.12643 1.0388 7.12643 1.22936C7.12643 1.41982 7.20004 1.60456 7.33367 1.73837L10.0668 4.48325L1.38347 4.48325C0.991961 4.48325 0.682617 4.79038 0.682617 5.18281V5.78556C0.682617 6.17799 0.991961 6.51609 1.38347 6.51609L10.0978 6.51609L7.33378 9.2763C7.20015 9.41031 7.12653 9.58417 7.12653 9.77473C7.12653 9.96508 7.20015 10.1415 7.33378 10.2754L7.75914 10.7004C7.89288 10.8344 8.07102 10.9074 8.26129 10.9074C8.45134 10.9074 8.62959 10.8334 8.76332 10.6994L13.4483 6.00466C13.5824 5.87022 13.6561 5.69076 13.6556 5.49999C13.656 5.30858 13.5824 5.12901 13.4482 4.99479Z"
                  fill="#717171"/>
        </g>
        <g id="location">
            <path d="M6.99998 3.00952C5.56684 3.00952 4.40088 4.17549 4.40088 5.60863C4.40088 7.04177 5.56684 8.20773 6.99998 8.20773C8.43312 8.20773 9.59909 7.04177 9.59909 5.60863C9.59909 4.17549 8.43315 3.00952 6.99998 3.00952ZM6.99998 7.11338C6.17026 7.11338 5.49523 6.43834 5.49523 5.60863C5.49523 4.77891 6.17026 4.10387 6.99998 4.10387C7.8297 4.10387 8.50474 4.77891 8.50474 5.60863C8.50474 6.43834 7.8297 7.11338 6.99998 7.11338Z"
                  fill="#717171"/>
            <path d="M7.00021 0C3.90761 0 1.3916 2.51604 1.3916 5.60861V5.76365C1.3916 7.32771 2.28831 9.15034 4.05691 11.1808C5.339 12.6528 6.60318 13.6791 6.65634 13.7221L7.00021 14L7.34409 13.7222C7.39727 13.6792 8.66146 12.6528 9.94352 11.1808C11.7121 9.15034 12.6088 7.32774 12.6088 5.76368V5.60864C12.6088 2.51604 10.0928 0 7.00021 0ZM11.5145 5.76368C11.5145 8.40686 8.10878 11.6065 7.00021 12.5778C5.89134 11.6062 2.48595 8.40667 2.48595 5.76368V5.60864C2.48595 3.11948 4.51106 1.09438 7.00021 1.09438C9.48937 1.09438 11.5145 3.11948 11.5145 5.60864V5.76368Z"
                  fill="#717171"/>
        </g>
        <g id="pool">
            <path d="M4.16669 41.6667C4.63996 42.3261 5.26663 42.8603 5.99257 43.2233C6.71851 43.5862 7.5219 43.767 8.33335 43.75C9.1448 43.767 9.94819 43.5862 10.6741 43.2233C11.4001 42.8603 12.0267 42.3261 12.5 41.6667C12.9733 41.0073 13.6 40.4731 14.3259 40.1101C15.0518 39.7472 15.8552 39.5664 16.6667 39.5834C17.4781 39.5664 18.2815 39.7472 19.0075 40.1101C19.7334 40.4731 20.3601 41.0073 20.8334 41.6667C21.3066 42.3261 21.9333 42.8603 22.6592 43.2233C23.3852 43.5862 24.1886 43.767 25 43.75C25.8115 43.767 26.6149 43.5862 27.3408 43.2233C28.0667 42.8603 28.6934 42.3261 29.1667 41.6667C29.64 41.0073 30.2666 40.4731 30.9926 40.1101C31.7185 39.7472 32.5219 39.5664 33.3334 39.5834C34.1448 39.5664 34.9482 39.7472 35.6741 40.1101C36.4001 40.4731 37.0268 41.0073 37.5 41.6667C37.9733 42.3261 38.6 42.8603 39.3259 43.2233C40.0519 43.5862 40.8552 43.767 41.6667 43.75C42.4781 43.767 43.2815 43.5862 44.0075 43.2233C44.7334 42.8603 45.3601 42.3261 45.8334 41.6667"
                  stroke="#222222" stroke-width="2" stroke-linecap="round" stroke-linejoin="round"/>
            <path d="M4.16669 33.3335C4.63996 33.9928 5.26663 34.5271 5.99257 34.89C6.71851 35.253 7.5219 35.4338 8.33335 35.4168C9.1448 35.4338 9.94819 35.253 10.6741 34.89C11.4001 34.5271 12.0267 33.9928 12.5 33.3335C12.9733 32.6741 13.6 32.1399 14.3259 31.7769C15.0518 31.4139 15.8552 31.2331 16.6667 31.2501C17.4781 31.2331 18.2815 31.4139 19.0075 31.7769C19.7334 32.1399 20.3601 32.6741 20.8334 33.3335C21.3066 33.9928 21.9333 34.5271 22.6592 34.89C23.3852 35.253 24.1886 35.4338 25 35.4168C25.8115 35.4338 26.6149 35.253 27.3408 34.89C28.0667 34.5271 28.6934 33.9928 29.1667 33.3335C29.64 32.6741 30.2666 32.1399 30.9926 31.7769C31.7185 31.4139 32.5219 31.2331 33.3334 31.2501C34.1448 31.2331 34.9482 31.4139 35.6741 31.7769C36.4001 32.1399 37.0268 32.6741 37.5 33.3335C37.9733 33.9928 38.6 34.5271 39.3259 34.89C40.0519 35.253 40.8552 35.4338 41.6667 35.4168C42.4781 35.4338 43.2815 35.253 44.0075 34.89C44.7334 34.5271 45.3601 33.9928 45.8334 33.3335"
                  stroke="#222222" stroke-width="2" stroke-linecap="round" stroke-linejoin="round"/>
            <path d="M31.25 25V9.375C31.25 8.5462 31.5792 7.75134 32.1653 7.16529C32.7513 6.57924 33.5462 6.25 34.375 6.25C35.2038 6.25 35.9987 6.57924 36.5847 7.16529C37.1708 7.75134 37.5 8.5462 37.5 9.375"
                  stroke="#222222" stroke-width="2" stroke-linecap="round" stroke-linejoin="round"/>
            <path d="M18.75 25V9.375C18.75 8.5462 18.4208 7.75134 17.8347 7.16529C17.2487 6.57924 16.4538 6.25 15.625 6.25C14.7962 6.25 14.0013 6.57924 13.4153 7.16529C12.8292 7.75134 12.5 8.5462 12.5 9.375"
                  stroke="#222222" stroke-width="2" stroke-linecap="round" stroke-linejoin="round"/>
            <path d="M31.25 10.4166H18.75" stroke="#222222" stroke-width="2" stroke-linecap="round"
                  stroke-linejoin="round"/>
            <path d="M18.75 20.8334H31.25" stroke="#222222" stroke-width="2" stroke-linecap="round"
                  stroke-linejoin="round"/>
        </g>
        <g id="parking">
            <path d="M40.4999 8.99976H13.4999C11.0147 8.99976 8.99994 11.0145 8.99994 13.4998V40.4997C8.99994 42.985 11.0147 44.9997 13.4999 44.9997H40.4999C42.9852 44.9997 44.9999 42.985 44.9999 40.4997V13.4998C44.9999 11.0145 42.9852 8.99976 40.4999 8.99976Z"
                  stroke="#222222" stroke-width="2.16" stroke-linecap="round" stroke-linejoin="round"/>
            <path d="M20.2499 36V18H29.2499C30.4434 18 31.588 18.4741 32.4319 19.318C33.2758 20.1619 33.7499 21.3065 33.7499 22.5C33.7499 23.6935 33.2758 24.8381 32.4319 25.682C31.588 26.5259 30.4434 27 29.2499 27H20.2499"
                  stroke="#222222" stroke-width="2.16" stroke-linecap="round" stroke-linejoin="round"/>
        </g>
        <g id="parking2">
                <path d="M21.2499 0.833336H3.74992C2.13909 0.833336 0.833252 2.13917 0.833252 3.75V21.25C0.833252 22.8608 2.13909 24.1667 3.74992 24.1667H21.2499C22.8607 24.1667 24.1666 22.8608 24.1666 21.25V3.75C24.1666 2.13917 22.8607 0.833336 21.2499 0.833336Z" stroke="#222222" stroke-width="1.2" stroke-linecap="round" stroke-linejoin="round"/>
                <path d="M7.83325 18.3334V6.66678H14.0555C14.8806 6.66678 15.6719 6.97407 16.2554 7.52105C16.8388 8.06803 17.1666 8.8099 17.1666 9.58345C17.1666 10.357 16.8388 11.0989 16.2554 11.6458C15.6719 12.1928 14.8806 12.5001 14.0555 12.5001H7.83325" stroke="#222222" stroke-width="1.2" stroke-linecap="round" stroke-linejoin="round"/>
        </g>
        <g id="gym">
            <path d="M57.2427 10.3636H56.2428V6.54547C56.2428 5.02483 55.0057 3.7878 53.4852 3.7878H51.6064C51.2538 3.7878 50.9167 3.85506 50.6065 3.97623V2.78795C50.6065 1.26731 49.3694 0.0302734 47.8489 0.0302734H44.0912C42.5706 0.0302734 41.3336 1.26743 41.3336 2.78795V10.3636H18.667V2.78795C18.667 1.26731 17.4299 0.0302734 15.9094 0.0302734H12.1517C10.6311 0.0302734 9.39404 1.26743 9.39404 2.78795V3.97623C9.08384 3.85506 8.74681 3.7878 8.39419 3.7878H6.51531C4.99468 3.7878 3.75764 5.02495 3.75764 6.54547V10.3636H2.75779C1.23716 10.3636 0 11.6006 0 13.1212V16.8788C0 18.3994 1.23716 19.6364 2.75767 19.6364H3.75752V23.4546C3.75752 24.9752 4.99468 26.2122 6.51519 26.2122H8.39396C8.74657 26.2122 9.08361 26.145 9.39381 26.0238V27.2121C9.39381 28.7327 10.631 29.9697 12.1515 29.9697H15.9091C17.4298 29.9697 18.6668 28.7326 18.6668 27.2121V19.6364H41.3332V27.2121C41.3332 28.7327 42.5704 29.9697 44.0909 29.9697H47.8485C49.3692 29.9697 50.6062 28.7326 50.6062 27.2121V26.0238C50.9164 26.145 51.2534 26.2122 51.606 26.2122H53.4848C55.0054 26.2122 56.2425 24.9751 56.2425 23.4546V19.6364H57.2423C58.763 19.6364 60 18.3993 60 16.8788V13.1212C60.0004 11.6006 58.7632 10.3636 57.2427 10.3636ZM3.75752 17.8787H2.75767V17.8786C2.2063 17.8786 1.75782 17.43 1.75782 16.8788V13.1212C1.75782 12.5699 2.20642 12.1214 2.75767 12.1214H3.75752V17.8787ZM15.9094 28.2119H12.1517C11.6003 28.2119 11.1519 27.7633 11.1519 27.2121V22.5151C11.1519 22.0297 10.7583 21.6361 10.273 21.6361C9.78756 21.6361 9.39404 22.0297 9.39404 22.5151V23.4544C9.39404 24.0058 8.94544 24.4543 8.39419 24.4543H6.51531C5.96394 24.4543 5.51546 24.0057 5.51546 23.4544V6.54535C5.51546 5.99398 5.96406 5.5455 6.51531 5.5455H8.39407C8.94544 5.5455 9.39392 5.9941 9.39392 6.54535V18.7578C9.39392 19.2432 9.78744 19.6367 10.2728 19.6367C10.7582 19.6367 11.1517 19.2432 11.1517 18.7578V2.78795C11.1517 2.23657 11.6003 1.7881 12.1516 1.7881H15.9092C16.4606 1.7881 16.9091 2.23669 16.9091 2.78795V27.2121H16.9092C16.9092 27.7634 16.4606 28.2119 15.9094 28.2119ZM41.3334 17.8786H18.667V12.1213H41.3334V17.8786ZM54.485 23.4546C54.485 24.0059 54.0364 24.4544 53.4852 24.4544H51.6064C51.055 24.4544 50.6065 24.0058 50.6065 23.4546V11.2421C50.6065 10.7567 50.213 10.3632 49.7276 10.3632C49.2422 10.3632 48.8487 10.7567 48.8487 11.2421V27.2122C48.8487 27.7636 48.4001 28.212 47.8489 28.212H44.0912C43.5399 28.212 43.0914 27.7634 43.0914 27.2122V2.78795C43.0914 2.23657 43.54 1.7881 44.0912 1.7881H47.8489C48.4002 1.7881 48.8487 2.23669 48.8487 2.78795V7.48497C48.8487 7.97036 49.2422 8.36388 49.7276 8.36388C50.213 8.36388 50.6065 7.97036 50.6065 7.48497V6.54558C50.6065 5.99421 51.0551 5.54574 51.6064 5.54574H53.4852C54.0365 5.54574 54.485 5.99433 54.485 6.54558V23.4546ZM58.2425 16.8788C58.2425 17.4301 57.7939 17.8786 57.2427 17.8786H56.2428V12.1213H57.2427C57.794 12.1213 58.2425 12.5699 58.2425 13.1211V16.8788Z"
                  fill="#222222"/>
        </g>
        <g id="spa">
            <path d="M39.6132 10.5808L29.5147 3.84851C29.2633 1.6886 27.4435 0 25.2174 0H14.7826C12.5565 0 10.7367 1.6886 10.4853 3.84851L0.386804 10.5808C0.145211 10.7426 0 11.0139 0 11.3043V32.1739C0 32.655 0.389776 33.0435 0.869565 33.0435H6.95652V39.1304C6.95652 39.6115 7.3463 40 7.82609 40H32.1739C32.655 40 33.0435 39.6115 33.0435 39.1304V33.0435H39.1304C39.6115 33.0435 40 32.655 40 32.1739V11.3043C40 11.0139 39.8548 10.7426 39.6132 10.5808ZM14.7826 1.73913H25.2174C26.5315 1.73913 27.6219 2.71569 27.801 3.98013L20.4348 10.5269L12.2036 3.95211C12.3939 2.70083 13.4783 1.73913 14.7826 1.73913ZM27.8261 6.28354V10.9129L13.913 23.2808V18.6515L21.0216 12.3331C21.0356 12.3208 21.0487 12.3094 21.0619 12.2975L27.8261 6.28354ZM12.1739 6.15489L19.1156 11.7001L16.3086 14.195L12.1739 10.887V6.15489ZM12.1739 38.2609H8.69565V29.5652H12.1739V38.2609ZM12.4652 17.6112C12.4592 17.6172 12.4567 17.6253 12.4503 17.6312C12.4028 17.6758 12.3705 17.7323 12.334 17.7862C12.3068 17.8269 12.272 17.8626 12.2529 17.9059C12.2329 17.9505 12.2287 18.0002 12.2164 18.0477C12.2007 18.1106 12.1799 18.1713 12.1782 18.2367C12.1782 18.2452 12.1739 18.2524 12.1739 18.2609V27.8261H8.69565V14.7826C8.69565 14.3015 8.30588 13.913 7.82609 13.913C7.3463 13.913 6.95652 14.3015 6.95652 14.7826V31.3043H1.73913V11.7697L10.4348 5.97232V11.3043C10.4348 11.5689 10.5549 11.8181 10.7609 11.9833L14.9894 15.3668L12.4652 17.6112ZM31.3043 38.2609H13.913V29.5652H31.3043V38.2609ZM38.2609 31.3043H33.0435V14.7826C33.0435 14.3015 32.655 13.913 32.1739 13.913C31.6928 13.913 31.3043 14.3015 31.3043 14.7826V27.8261H13.913V25.608L29.2731 11.954C29.4591 11.7897 29.5652 11.5523 29.5652 11.3043V5.97232L38.2609 11.7697V31.3043Z"
                  fill="#222222"/>
        </g>
        <g id="school">
            <path d="M56.6143 21.857L29.4268 7.35696C29.1595 7.21467 28.8414 7.21467 28.5741 7.35696L1.38656 21.857C1.09022 22.0146 0.90625 22.3219 0.90625 22.6563C0.90625 22.9907 1.09022 23.2979 1.38566 23.4556L9.0625 27.55V38.9688H10.875V28.517L13.5938 29.967V35.4725C12.0341 35.8775 10.875 37.284 10.875 38.9688C10.875 39.7971 11.165 40.552 11.6344 41.1637C11.1396 42.8557 10.875 44.6002 10.875 46.3656V48.9375C10.875 49.281 11.0689 49.5945 11.3762 49.7486L12.3776 50.2498C13.0337 50.5769 13.7668 50.75 14.5 50.75C15.2332 50.75 15.9663 50.5769 16.6224 50.2489L17.6238 49.7477C17.9311 49.5945 18.125 49.281 18.125 48.9375V46.3656C18.125 44.6002 17.8604 42.8557 17.3656 41.1637C17.835 40.552 18.125 39.7971 18.125 38.9688C18.125 37.284 16.9659 35.8775 15.4062 35.4725V30.934L28.5732 37.9565C28.7073 38.0272 28.8532 38.0625 29 38.0625C29.1468 38.0625 29.2927 38.0272 29.4268 37.9565L47.125 28.517V38.5211C42.0844 42.3192 35.8585 44.4063 29.5428 44.4063H28.4581C25.3469 44.4063 22.2711 43.9124 19.3149 42.9381L18.7485 44.66C21.8859 45.694 25.1539 46.2188 28.4572 46.2188H29.5419C36.4059 46.2188 43.1692 43.8979 48.5877 39.6838C48.8079 39.5125 48.9375 39.2488 48.9375 38.9688V27.55L56.6143 23.4556C56.9098 23.2979 57.0938 22.9907 57.0938 22.6563C57.0938 22.3219 56.9098 22.0146 56.6143 21.857ZM16.3125 48.3775L15.8113 48.6276C15.0003 49.0327 13.9988 49.0327 13.1877 48.6276L12.6875 48.3775V46.3656C12.6875 45.0035 12.8533 43.6541 13.1805 42.3364C13.5901 42.4977 14.0333 42.5938 14.5 42.5938C14.9667 42.5938 15.4099 42.4977 15.8195 42.3364C16.1467 43.6541 16.3125 45.0035 16.3125 46.3656V48.3775ZM16.3125 38.9688C16.3125 39.9684 15.4996 40.7813 14.5 40.7813C13.5004 40.7813 12.6875 39.9684 12.6875 38.9688C12.6875 37.9692 13.5004 37.1563 14.5 37.1563C15.4996 37.1563 16.3125 37.9692 16.3125 38.9688ZM29 36.1286L16.0297 29.2112L27.2573 23.2236C27.7729 23.4338 28.3602 23.5625 29 23.5625C31.0327 23.5625 32.625 22.3681 32.625 20.8438C32.625 19.3195 31.0327 18.125 29 18.125C26.9673 18.125 25.375 19.3195 25.375 20.8438C25.375 21.2579 25.501 21.644 25.713 21.9929L14.104 28.1844L3.73828 22.6563L29 9.18305L54.2617 22.6563L29 36.1286ZM27.1875 20.8438C27.1875 20.474 27.8935 19.9375 29 19.9375C30.1065 19.9375 30.8125 20.474 30.8125 20.8438C30.8125 21.2135 30.1065 21.75 29 21.75C27.8935 21.75 27.1875 21.2135 27.1875 20.8438Z"
                  fill="#222222"/>
        </g>
        <g id="shopping">
            <g clip-path="url(#clip0)">
                <path d="M25.8945 4.94272C25.4924 2.12506 23.0389 0 20.1878 0C18.3542 0 16.6128 0.884466 15.5302 2.36679C15.309 2.66909 15.3752 3.09315 15.6776 3.31422C15.979 3.53449 16.4042 3.46914 16.625 3.16644C17.4537 2.0329 18.7854 1.356 20.1876 1.356C22.3681 1.356 24.244 2.98033 24.5516 5.134C24.6 5.47225 24.8903 5.71636 25.2224 5.71636C25.2539 5.71636 25.2865 5.71397 25.3189 5.7096C25.6897 5.65657 25.9474 5.31315 25.8945 4.94272Z"
                      fill="#222222"/>
                <path d="M35.6902 12.5322L33.6556 9.14235C33.5332 8.93797 33.3124 8.81323 33.074 8.81323H31.1242C30.7498 8.81323 30.446 9.11693 30.446 9.49113C30.446 9.86534 30.7498 10.169 31.1242 10.169H32.6901L33.9109 12.2029H6.46476L7.68555 10.169H8.40384C8.77818 10.169 9.08199 9.86534 9.08199 9.49113C9.08199 9.11693 8.77818 8.81323 8.40384 8.81323H7.30167C7.06323 8.81323 6.84248 8.93797 6.72008 9.14235L4.68543 12.5322C4.55966 12.742 4.55668 13.0028 4.67689 13.2153C4.7971 13.4278 5.02242 13.5593 5.26702 13.5593H35.1086C35.3532 13.5593 35.5783 13.4278 35.6988 13.2153C35.8192 13.0028 35.816 12.7416 35.6902 12.5322Z"
                      fill="#222222"/>
                <path d="M32.3093 6.28101C32.2143 6.12787 32.0627 6.01922 31.8875 5.97831L22.6419 3.8167C22.4669 3.77558 22.2825 3.80617 22.1295 3.90071C21.9769 3.99566 21.868 4.1472 21.8271 4.32239L21.1298 7.30173C21.0444 7.6662 21.2709 8.03087 21.6357 8.11588C22.0003 8.20129 22.3655 7.97486 22.4506 7.61019L22.9934 5.29127L30.918 7.14422L29.6728 12.4663C29.5874 12.8308 29.8139 13.1955 30.1787 13.2805C30.2309 13.2926 30.2828 13.2983 30.3341 13.2983C30.642 13.2983 30.9208 13.0874 30.9933 12.775L32.3931 6.79286C32.4345 6.61787 32.4043 6.43355 32.3093 6.28101Z"
                      fill="#222222"/>
                <path d="M20.5466 7.88386L19.9287 2.65909C19.9076 2.48053 19.8164 2.31746 19.6749 2.20623C19.5335 2.095 19.3548 2.04415 19.1754 2.06521L7.83185 3.40551C7.46009 3.44961 7.19423 3.78647 7.23814 4.15849L8.26838 12.8727C8.30931 13.2177 8.60199 13.4713 8.94117 13.4713C8.96759 13.4713 8.99482 13.4695 9.02184 13.4665C9.3934 13.4224 9.65926 13.0856 9.61554 12.7136L8.66478 4.67213L18.6614 3.49112L19.1995 8.04256C19.2436 8.41438 19.579 8.67854 19.9527 8.63644C20.3245 8.59274 20.5903 8.25568 20.5466 7.88386Z"
                      fill="#222222"/>
                <path d="M25.91 12.6237L24.5639 7.0277C24.5217 6.85311 24.4119 6.70196 24.2587 6.60801C24.1055 6.51486 23.9217 6.48566 23.7458 6.52737L12.8201 9.15396C12.4559 9.24135 12.2318 9.60761 12.3192 9.97168L12.992 12.7687C13.0794 13.1332 13.4458 13.3574 13.8098 13.2694C14.174 13.182 14.3982 12.8158 14.3107 12.4517L13.7963 10.3137L23.4033 8.00453L24.5909 12.9411C24.6654 13.2519 24.9436 13.4605 25.2498 13.4605C25.3024 13.4605 25.3557 13.4543 25.4091 13.4414C25.7733 13.3538 25.9975 12.9878 25.91 12.6237Z"
                      fill="#222222"/>
                <path d="M35.7865 12.8468C35.7679 12.4865 35.4702 12.2036 35.109 12.2036H5.26737C4.90614 12.2036 4.60849 12.4863 4.58982 12.8468L3.23332 39.2874C3.22378 39.4729 3.29094 39.6544 3.4189 39.7891C3.54706 39.9236 3.72469 40 3.91067 40H36.4651C36.6509 40 36.8287 39.9238 36.9574 39.7891C37.0852 39.6544 37.1524 39.4731 37.143 39.2874L35.7865 12.8468ZM4.62439 38.644L5.91134 13.5594H34.4642L35.7512 38.644H4.62439Z"
                      fill="#222222"/>
                <path d="M25.2744 14.9153C24.1524 14.9153 23.2397 15.8276 23.2397 16.9492C23.2397 18.0708 24.1524 18.9831 25.2744 18.9831C26.3964 18.9831 27.3091 18.0708 27.3091 16.9492C27.3091 15.8276 26.3964 14.9153 25.2744 14.9153ZM25.2744 17.6273C24.9003 17.6273 24.5962 17.3232 24.5962 16.9494C24.5962 16.5756 24.9005 16.2715 25.2744 16.2715C25.6483 16.2715 25.9526 16.5756 25.9526 16.9494C25.9526 17.3232 25.6483 17.6273 25.2744 17.6273Z"
                      fill="#222222"/>
                <path d="M15.1011 14.9153C13.979 14.9153 13.0664 15.8276 13.0664 16.9492C13.0664 18.0708 13.979 18.9831 15.1011 18.9831C16.2231 18.9831 17.1357 18.0708 17.1357 16.9492C17.1357 15.8276 16.2231 14.9153 15.1011 14.9153ZM15.1011 17.6273C14.7271 17.6273 14.4229 17.3232 14.4229 16.9494C14.4229 16.5756 14.7271 16.2715 15.1011 16.2715C15.475 16.2715 15.7792 16.5756 15.7792 16.9494C15.7792 17.3232 15.475 17.6273 15.1011 17.6273Z"
                      fill="#222222"/>
                <path d="M25.2743 16.949H25.222C24.8477 16.949 24.5438 17.2527 24.5438 17.6269C24.5438 17.7194 24.5621 17.8078 24.5961 17.8883V21.3556C24.5961 23.7854 22.6185 25.7624 20.1876 25.7624C17.7568 25.7624 15.7792 23.7856 15.7792 21.3556V17.6271C15.7792 17.2529 15.4753 16.9492 15.101 16.9492C14.7267 16.9492 14.4229 17.2529 14.4229 17.6271V21.3558C14.4229 24.5334 17.0089 27.1184 20.1876 27.1184C23.3664 27.1184 25.9524 24.5334 25.9524 21.3558V17.6271C25.9524 17.2529 25.6486 16.949 25.2743 16.949Z"
                      fill="#222222"/>
            </g>
            <defs>
                <clipPath id="clip0">
                    <rect width="40.0149" height="40" fill="white" transform="translate(0.180664)"/>
                </clipPath>
            </defs>
        </g>
        <g id="news-author">
            <path d="M13.8102 9.52183C13.313 9.08501 12.7102 8.70758 12.0181 8.40008C11.7223 8.2687 11.3761 8.40191 11.2447 8.69762C11.1134 8.99334 11.2466 9.33952 11.5423 9.47102C12.1258 9.73034 12.6287 10.0436 13.0367 10.4021C13.5396 10.8441 13.8281 11.484 13.8281 12.1582V13.2422C13.8281 13.5653 13.5653 13.8281 13.2422 13.8281H1.75781C1.43475 13.8281 1.17188 13.5653 1.17188 13.2422V12.1582C1.17188 11.484 1.46038 10.8441 1.96335 10.4021C2.55535 9.88186 4.2802 8.67188 7.5 8.67188C9.89079 8.67188 11.8359 6.72672 11.8359 4.33594C11.8359 1.94515 9.89079 0 7.5 0C5.10921 0 3.16406 1.94515 3.16406 4.33594C3.16406 5.7336 3.82896 6.97872 4.85893 7.77214C2.97432 8.18642 1.80199 8.98384 1.18984 9.52183C0.433731 10.1862 0 11.147 0 12.1582V13.2422C0 14.2115 0.788498 15 1.75781 15H13.2422C14.2115 15 15 14.2115 15 13.2422V12.1582C15 11.147 14.5663 10.1862 13.8102 9.52183ZM4.33594 4.33594C4.33594 2.59129 5.75535 1.17188 7.5 1.17188C9.24465 1.17188 10.6641 2.59129 10.6641 4.33594C10.6641 6.08059 9.24465 7.5 7.5 7.5C5.75535 7.5 4.33594 6.08059 4.33594 4.33594Z" fill="#717171"/>
        </g>
        <g id="news-date">
            <path d="M13.0664 1.17188H11.7188V0.46875C11.7188 0.209883 11.5089 0 11.25 0C10.9911 0 10.7812 0.209883 10.7812 0.46875V1.17188H4.21875V0.46875C4.21875 0.209883 4.0089 0 3.75 0C3.4911 0 3.28125 0.209883 3.28125 0.46875V1.17188H1.93359C0.867393 1.17188 0 2.03927 0 3.10547V13.0664C0 14.1326 0.867393 15 1.93359 15H13.0664C14.1326 15 15 14.1326 15 13.0664V3.10547C15 2.03927 14.1326 1.17188 13.0664 1.17188ZM1.93359 2.10938H3.28125V2.57812C3.28125 2.83699 3.4911 3.04688 3.75 3.04688C4.0089 3.04688 4.21875 2.83699 4.21875 2.57812V2.10938H10.7812V2.57812C10.7812 2.83699 10.9911 3.04688 11.25 3.04688C11.5089 3.04688 11.7188 2.83699 11.7188 2.57812V2.10938H13.0664C13.6157 2.10938 14.0625 2.55621 14.0625 3.10547V4.21875H0.9375V3.10547C0.9375 2.55621 1.38434 2.10938 1.93359 2.10938ZM13.0664 14.0625H1.93359C1.38434 14.0625 0.9375 13.6157 0.9375 13.0664V5.15625H14.0625V13.0664C14.0625 13.6157 13.6157 14.0625 13.0664 14.0625Z" fill="#717171"/>
        </g>
        <g id="footer-pin">
                <path d="M8.99991 3.86914C7.1573 3.86914 5.6582 5.36824 5.6582 7.21085C5.6582 9.05346 7.1573 10.5526 8.99991 10.5526C10.8425 10.5526 12.3416 9.05346 12.3416 7.21085C12.3416 5.36824 10.8426 3.86914 8.99991 3.86914ZM8.99991 9.14553C7.93313 9.14553 7.06523 8.27763 7.06523 7.21085C7.06523 6.14407 7.93313 5.27616 8.99991 5.27616C10.0667 5.27616 10.9346 6.14407 10.9346 7.21085C10.9346 8.27763 10.0667 9.14553 8.99991 9.14553Z" fill="#717171"/>
                <path d="M9.00014 0C5.02393 0 1.78906 3.2349 1.78906 7.21107V7.41041C1.78906 9.42135 2.94198 11.7647 5.21588 14.3753C6.86429 16.2679 8.48967 17.5875 8.55801 17.6427L9.00014 18L9.44226 17.6428C9.51064 17.5875 11.136 16.2679 12.7844 14.3754C15.0583 11.7647 16.2112 9.42138 16.2112 7.41045V7.21111C16.2112 3.2349 12.9763 0 9.00014 0ZM14.8042 7.41045C14.8042 10.8088 10.4254 14.9226 9.00014 16.1715C7.57444 14.9222 3.19609 10.8086 3.19609 7.41045V7.21111C3.19609 4.01077 5.79979 1.40706 9.00014 1.40706C12.2005 1.40706 14.8042 4.01077 14.8042 7.21111V7.41045Z" fill="#717171"/>
        </g>
        <g id="footer-phone">
                <g clip-path="url(#clip0)">
                    <path d="M12.937 18C12.356 18 11.7799 17.8973 11.2165 17.6926C8.73465 16.791 6.43096 15.3226 4.55439 13.4461C2.67783 11.5696 1.20941 9.26582 0.307867 6.78396C0.0181558 5.98637 -0.0673407 5.16305 0.0538379 4.33677C0.167353 3.5628 0.467153 2.81144 0.920861 2.16388C1.37657 1.51348 1.98412 0.972523 2.67779 0.599495C3.41752 0.201718 4.22492 0 5.07764 0C5.34284 0 5.57205 0.185301 5.62763 0.444603L6.51051 4.56471C6.55048 4.75128 6.49314 4.9454 6.35825 5.08033L4.84966 6.58889C6.27279 9.41836 8.58204 11.7276 11.4115 13.1507L12.9201 11.6421C13.055 11.5073 13.2492 11.45 13.4357 11.4899L17.5558 12.3728C17.8151 12.4283 18.0004 12.6576 18.0004 12.9228C18.0004 13.7755 17.7987 14.5829 17.4009 15.3226C17.0278 16.0163 16.4869 16.6239 15.8365 17.0796C15.189 17.5333 14.4376 17.8331 13.6636 17.9466C13.4211 17.9822 13.1786 18 12.937 18ZM4.62822 1.14956C3.50344 1.27373 2.50511 1.86328 1.84216 2.80947C1.09667 3.87343 0.92283 5.18206 1.36522 6.3999C3.09849 11.1713 6.82915 14.902 11.6006 16.6353C12.8184 17.0776 14.127 16.9038 15.191 16.1583C16.1372 15.4954 16.7267 14.497 16.8509 13.3723L13.4992 12.654L11.9237 14.2295C11.7561 14.3972 11.5013 14.4417 11.2868 14.3409C7.94043 12.7688 5.23168 10.06 3.65956 6.71365C3.55877 6.4991 3.60328 6.24437 3.77093 6.07675L5.34643 4.50126L4.62822 1.14956Z" fill="#717171"/>
                </g>
                <defs>
                    <clipPath id="clip0">
                        <rect width="18" height="18" fill="white"/>
                    </clipPath>
                </defs>
        </g>
        <g id="footer-email">
                <path d="M15.8906 2.39062H2.10938C0.946266 2.39062 0 3.33689 0 4.5V13.5C0 14.6631 0.946266 15.6094 2.10938 15.6094H15.8906C17.0537 15.6094 18 14.6631 18 13.5V4.5C18 3.33689 17.0537 2.39062 15.8906 2.39062ZM16.5938 13.5C16.5938 13.8877 16.2783 14.2031 15.8906 14.2031H2.10938C1.72167 14.2031 1.40625 13.8877 1.40625 13.5V4.5C1.40625 4.1123 1.72167 3.79688 2.10938 3.79688H15.8906C16.2783 3.79688 16.5938 4.1123 16.5938 4.5V13.5Z" fill="#717171"/>
                <path d="M16.4746 3.26709L9.0002 8.82658L1.52584 3.26709L0.686523 4.39543L9.0002 10.5792L17.3139 4.39543L16.4746 3.26709Z" fill="#717171"/>
        </g>
        <g id="facebook">
            <g filter="url(#filter0_d)">
                <path d="M10.5391 6.94775L10.8672 4.7915H8.78125V3.38525C8.78125 2.77588 9.0625 2.21338 10 2.21338H10.9609V0.361816C10.9609 0.361816 10.0938 0.197754 9.27344 0.197754C7.5625 0.197754 6.4375 1.25244 6.4375 3.12744V4.7915H4.51562V6.94775H6.4375V12.1978H8.78125V6.94775H10.5391Z" fill="#234DD4"/>
            </g>
            <defs>
                <filter id="filter0_d" x="0.515625" y="0.197754" width="14.4453" height="20" filterUnits="userSpaceOnUse" color-interpolation-filters="sRGB">
                    <feFlood flood-opacity="0" result="BackgroundImageFix"/>
                    <feColorMatrix in="SourceAlpha" type="matrix" values="0 0 0 0 0 0 0 0 0 0 0 0 0 0 0 0 0 0 127 0" result="hardAlpha"/>
                    <feOffset dy="4"/>
                    <feGaussianBlur stdDeviation="2"/>
                    <feColorMatrix type="matrix" values="0 0 0 0 0 0 0 0 0 0 0 0 0 0 0 0 0 0 0.25 0"/>
                    <feBlend mode="normal" in2="BackgroundImageFix" result="effect1_dropShadow"/>
                    <feBlend mode="normal" in="SourceGraphic" in2="effect1_dropShadow" result="shape"/>
                </filter>
            </defs>
        </g>
        <g id="twitter">
            <path d="M10.7578 2.76025C11.2266 2.40869 11.6484 1.98682 11.9766 1.49463C11.5547 1.68213 11.0625 1.82275 10.5703 1.86963C11.0859 1.56494 11.4609 1.09619 11.6484 0.510254C11.1797 0.791504 10.6406 1.00244 10.1016 1.11963C9.63281 0.627441 9 0.346191 8.29688 0.346191C6.9375 0.346191 5.83594 1.44775 5.83594 2.80713C5.83594 2.99463 5.85938 3.18213 5.90625 3.36963C3.86719 3.25244 2.03906 2.26807 0.820312 0.791504C0.609375 1.14307 0.492188 1.56494 0.492188 2.03369C0.492188 2.87744 0.914062 3.62744 1.59375 4.07275C1.19531 4.04932 0.796875 3.95557 0.46875 3.76807V3.7915C0.46875 4.98682 1.3125 5.97119 2.4375 6.20557C2.25 6.25244 2.01562 6.29932 1.80469 6.29932C1.64062 6.29932 1.5 6.27588 1.33594 6.25244C1.64062 7.23682 2.55469 7.93994 3.63281 7.96338C2.78906 8.61963 1.73438 9.01807 0.585938 9.01807C0.375 9.01807 0.1875 8.99463 0 8.97119C1.07812 9.67432 2.36719 10.0728 3.77344 10.0728C8.29688 10.0728 10.7578 6.34619 10.7578 3.08838C10.7578 2.97119 10.7578 2.87744 10.7578 2.76025Z" fill="#234DD4"/>
        </g>
        <g id="instagram">
            <path d="M6.25 3.50244C4.75 3.50244 3.55469 4.72119 3.55469 6.19775C3.55469 7.69775 4.75 8.89307 6.25 8.89307C7.72656 8.89307 8.94531 7.69775 8.94531 6.19775C8.94531 4.72119 7.72656 3.50244 6.25 3.50244ZM6.25 7.95557C5.28906 7.95557 4.49219 7.18213 4.49219 6.19775C4.49219 5.23682 5.26562 4.46338 6.25 4.46338C7.21094 4.46338 7.98438 5.23682 7.98438 6.19775C7.98438 7.18213 7.21094 7.95557 6.25 7.95557ZM9.67188 3.40869C9.67188 3.05713 9.39062 2.77588 9.03906 2.77588C8.6875 2.77588 8.40625 3.05713 8.40625 3.40869C8.40625 3.76025 8.6875 4.0415 9.03906 4.0415C9.39062 4.0415 9.67188 3.76025 9.67188 3.40869ZM11.4531 4.0415C11.4062 3.19775 11.2188 2.44775 10.6094 1.83838C10 1.229 9.25 1.0415 8.40625 0.994629C7.53906 0.947754 4.9375 0.947754 4.07031 0.994629C3.22656 1.0415 2.5 1.229 1.86719 1.83838C1.25781 2.44775 1.07031 3.19775 1.02344 4.0415C0.976562 4.90869 0.976562 7.51025 1.02344 8.37744C1.07031 9.22119 1.25781 9.94775 1.86719 10.5806C2.5 11.1899 3.22656 11.3774 4.07031 11.4243C4.9375 11.4712 7.53906 11.4712 8.40625 11.4243C9.25 11.3774 10 11.1899 10.6094 10.5806C11.2188 9.94775 11.4062 9.22119 11.4531 8.37744C11.5 7.51025 11.5 4.90869 11.4531 4.0415ZM10.3281 9.2915C10.1641 9.76025 9.78906 10.1118 9.34375 10.2993C8.64062 10.5806 7 10.5103 6.25 10.5103C5.47656 10.5103 3.83594 10.5806 3.15625 10.2993C2.6875 10.1118 2.33594 9.76025 2.14844 9.2915C1.86719 8.61182 1.9375 6.97119 1.9375 6.19775C1.9375 5.44775 1.86719 3.80713 2.14844 3.104C2.33594 2.65869 2.6875 2.30713 3.15625 2.11963C3.83594 1.83838 5.47656 1.90869 6.25 1.90869C7 1.90869 8.64062 1.83838 9.34375 2.11963C9.78906 2.28369 10.1406 2.65869 10.3281 3.104C10.6094 3.80713 10.5391 5.44775 10.5391 6.19775C10.5391 6.97119 10.6094 8.61182 10.3281 9.2915Z" fill="#234DD4"/>
        </g>
        <g id="linkedin">
            <path d="M2.34375 10.6978V3.68994H0.164062V10.6978H2.34375ZM1.24219 2.75244C1.94531 2.75244 2.50781 2.1665 2.50781 1.46338C2.50781 0.783691 1.94531 0.221191 1.24219 0.221191C0.5625 0.221191 0 0.783691 0 1.46338C0 2.1665 0.5625 2.75244 1.24219 2.75244ZM10.4766 10.6978H10.5V6.854C10.5 4.979 10.0781 3.52588 7.875 3.52588C6.82031 3.52588 6.11719 4.11182 5.8125 4.65088H5.78906V3.68994H3.70312V10.6978H5.88281V7.229C5.88281 6.31494 6.04688 5.44775 7.17188 5.44775C8.29688 5.44775 8.32031 6.479 8.32031 7.29932V10.6978H10.4766Z" fill="#234DD4"/>
        </g>
        <g id="wifi">
            <g clip-path="url(#clip0)">
                <path d="M12.5799 18.5325C11.681 18.5364 10.9526 19.271 10.9566 20.17C10.9605 21.0689 11.6951 21.7972 12.5941 21.7933C13.493 21.7894 14.2213 21.0547 14.2174 20.1558C14.2135 19.2569 13.4788 18.5286 12.5799 18.5325ZM12.5893 20.7063C12.2904 20.7076 12.0448 20.4641 12.0435 20.1652C12.0422 19.8663 12.2857 19.6206 12.5846 19.6193C12.8835 19.618 13.1291 19.8615 13.1304 20.1605C13.1317 20.4594 12.8882 20.705 12.5893 20.7063Z" fill="black"/>
                <path d="M17.0527 15.7727C15.7896 14.7413 14.1326 14.1596 12.5001 14.1667C10.8675 14.1738 9.33749 14.7693 8.08439 15.8117C7.85263 16.0029 7.82151 16.3455 8.01379 16.5762C8.20499 16.8069 8.54753 16.8402 8.77821 16.6468C10.9021 14.8864 14.2282 14.872 16.3672 16.6138C16.4676 16.697 16.5906 16.7367 16.7123 16.7362C16.8678 16.7355 17.024 16.6674 17.1299 16.5365C17.3203 16.3042 17.2862 15.962 17.0527 15.7727Z" fill="black"/>
                <path d="M20.9971 12.0153C18.6694 9.89611 15.6644 8.73632 12.5372 8.74992C9.41009 8.76352 6.41523 9.9494 4.10604 12.0888C3.88518 12.2919 3.87257 12.6366 4.07677 12.8563C4.28097 13.0772 4.62668 13.0887 4.84427 12.8856C6.95429 10.9318 9.68288 10.0124 12.5372 10C15.3916 9.98759 18.1389 10.8832 20.2659 12.8185C20.3706 12.9137 20.5023 12.961 20.6339 12.9604C20.7796 12.9598 20.926 12.9004 21.0331 12.7826C21.2354 12.5611 21.2198 12.2176 20.9971 12.0153Z" fill="black"/>
                <path d="M24.8666 8.21262C21.4973 5.03379 17.1104 3.29525 12.5136 3.31524C7.9148 3.33523 3.54313 5.10641 0.205895 8.30249C-0.0127576 8.50887 -0.0189018 8.85348 0.188597 9.06994C0.394984 9.28859 0.740661 9.29361 0.956052 9.08724C4.09302 6.08555 8.19412 5.01878 12.5136 4.99999C16.831 4.98122 20.9559 6.01767 24.12 9.00281C24.2259 9.10237 24.3609 9.15177 24.4957 9.15118C24.6391 9.15056 24.7824 9.09343 24.8895 8.98097C25.095 8.76272 25.0849 8.41818 24.8666 8.21262Z" fill="black"/>
            </g>
            <defs>
                <clipPath id="clip0">
                    <rect width="25" height="25" fill="white" transform="translate(0 0.108711) rotate(-0.249151)"/>
                </clipPath>
            </defs>
        </g>
        <g id="pets">
            <g clip-path="url(#clip0)">
                <path d="M25.8815 19.8922C23.5267 17.049 20.5502 15.4831 17.5001 15.4831C14.45 15.4831 11.4735 17.049 9.11876 19.8922C7.00208 22.4478 5.73853 25.6686 5.73853 28.5078C5.73853 29.8871 6.16017 30.9376 6.99169 31.6304C7.81241 32.3143 8.89598 32.5456 10.1048 32.5456C11.3912 32.5456 12.8195 32.2836 14.2228 32.0262C15.4491 31.8012 16.6074 31.5887 17.5002 31.5887C18.2707 31.5887 19.3571 31.7904 20.5072 32.0039C23.1948 32.5029 26.2412 33.0684 28.001 31.6052C28.8376 30.9096 29.2617 29.8675 29.2617 28.5078C29.2618 25.6686 27.9982 22.4478 25.8815 19.8922ZM26.6899 30.0283C25.6697 30.8766 23.0147 30.3836 20.8814 29.9876C19.6358 29.7564 18.4593 29.5379 17.5 29.5379C16.4207 29.5379 15.1734 29.7668 13.8526 30.0091C11.8066 30.3844 9.2602 30.8515 8.30426 30.055C8.17684 29.9488 7.7891 29.6257 7.7891 28.5078C7.7891 26.1667 8.90377 23.3666 10.698 21.2002C12.6562 18.8359 15.0718 17.5338 17.5 17.5338C19.9281 17.5338 22.3438 18.8359 24.3019 21.2002C26.0962 23.3666 27.2108 26.1667 27.2108 28.5078C27.211 29.595 26.8188 29.9212 26.6899 30.0283Z" fill="black"/>
                <path d="M26.122 4.45333C25.2604 3.183 24.0267 2.45457 22.7371 2.45457C21.4474 2.45457 20.2138 3.18314 19.3521 4.45333C18.5607 5.62029 18.1248 7.15277 18.1248 8.76851C18.1248 10.3843 18.5606 11.9167 19.3521 13.0837C20.2138 14.354 21.4475 15.0825 22.7371 15.0825C24.0268 15.0825 25.2604 14.354 26.122 13.0837C26.9135 11.9167 27.3494 10.3843 27.3494 8.76851C27.3494 7.15277 26.9136 5.62022 26.122 4.45333ZM24.4249 11.9326C24.1465 12.3431 23.5569 13.0318 22.7371 13.0318C21.9173 13.0318 21.3278 12.3432 21.0493 11.9326C20.494 11.1138 20.1755 9.96049 20.1755 8.76851C20.1755 7.57646 20.494 6.42324 21.0493 5.60443C21.3277 5.19393 21.9173 4.50521 22.7371 4.50521C23.5569 4.50521 24.1465 5.19386 24.4249 5.60443C24.9802 6.42324 25.2987 7.57653 25.2987 8.76851C25.2987 9.96049 24.9802 11.1138 24.4249 11.9326Z" fill="black"/>
                <path d="M15.6477 4.45327C14.7861 3.18295 13.5524 2.45444 12.2627 2.45444C10.9731 2.45444 9.73932 3.18302 8.87778 4.45327C8.08632 5.62024 7.65039 7.15272 7.65039 8.76846C7.65039 10.3842 8.08625 11.9167 8.87778 13.0836C9.73938 14.354 10.9731 15.0825 12.2627 15.0825C13.5524 15.0825 14.7861 14.354 15.6477 13.0836C16.4391 11.9167 16.8751 10.3843 16.8751 8.76846C16.875 7.15272 16.4391 5.62017 15.6477 4.45327ZM13.9504 11.9326C13.672 12.3431 13.0824 13.0318 12.2627 13.0318C11.4428 13.0318 10.8533 12.3431 10.5749 11.9326C10.0195 11.1138 9.70104 9.96051 9.70104 8.76853C9.70104 7.57648 10.0196 6.42325 10.5749 5.60444C10.8533 5.19395 11.4428 4.50523 12.2627 4.50523C13.0825 4.50523 13.672 5.19388 13.9504 5.60444C14.5057 6.42325 14.8242 7.57654 14.8242 8.76853C14.8242 9.96051 14.5057 11.1138 13.9504 11.9326Z" fill="black"/>
                <path d="M34.7962 14.3646C34.4489 13.1831 33.7044 12.3245 32.7 11.9473C31.8917 11.6437 30.9793 11.6951 30.1308 12.0922C28.9616 12.6394 28.0058 13.7692 27.5089 15.192C27.1027 16.3547 27.0521 17.5836 27.3663 18.6525C27.7137 19.834 28.4582 20.6926 29.4626 21.0698C29.8102 21.2004 30.177 21.2653 30.5497 21.2653C31.0437 21.2653 31.5482 21.1512 32.0318 20.9248C33.2011 20.3777 34.1569 19.2478 34.6538 17.8251V17.8251C35.0599 16.6625 35.1105 15.4335 34.7962 14.3646ZM32.7178 17.1488C32.4063 18.0403 31.8249 18.7575 31.1626 19.0674C30.919 19.1813 30.5516 19.2882 30.1837 19.15C29.2958 18.8165 28.9505 17.2829 29.4447 15.8683C29.7562 14.9768 30.3376 14.2596 31 13.9496C31.1614 13.874 31.3773 13.8016 31.6116 13.8016C31.7309 13.8016 31.8549 13.8204 31.9788 13.8669C32.8666 14.2005 33.212 15.7341 32.7178 17.1488Z" fill="black"/>
                <path d="M7.491 15.1918C6.99396 13.7691 6.03823 12.6393 4.86901 12.0921C4.02047 11.695 3.10801 11.6436 2.29979 11.9472C1.29532 12.3245 0.550818 13.183 0.203484 14.3645C-0.110764 15.4334 -0.0601093 16.6624 0.346014 17.825V17.825C0.843123 19.2478 1.79879 20.3776 2.96801 20.9247C3.45172 21.151 3.95614 21.2651 4.45017 21.2651C4.82287 21.2651 5.18969 21.2002 5.53722 21.0697C6.54183 20.6924 7.28627 19.8338 7.6336 18.6524C7.94771 17.5835 7.89706 16.3546 7.491 15.1918ZM4.81603 19.15C4.44819 19.2881 4.08069 19.1813 3.8372 19.0674C3.17486 18.7574 2.5934 18.0402 2.28202 17.1487V17.1488C1.78785 15.7341 2.13313 14.2006 3.02098 13.867C3.38876 13.7289 3.75633 13.8357 3.99989 13.9496C4.66229 14.2596 5.24369 14.9768 5.55507 15.8682C6.04924 17.2829 5.70389 18.8164 4.81603 19.15Z" fill="black"/>
            </g>
            <defs>
                <clipPath id="clip0">
                    <rect width="35" height="35" fill="white"/>
                </clipPath>
            </defs>
        </g>
        <g id="spa2">
            <path d="M24.7582 6.61303L18.4467 2.40532C18.2896 1.05538 17.1522 0 15.7609 0H9.23913C7.84779 0 6.71042 1.05538 6.55332 2.40532L0.241752 6.61303C0.0907567 6.71413 0 6.8837 0 7.06522V20.1087C0 20.4094 0.24361 20.6522 0.543478 20.6522H4.34783V24.4565C4.34783 24.7572 4.59144 25 4.8913 25H20.1087C20.4094 25 20.6522 24.7572 20.6522 24.4565V20.6522H24.4565C24.7572 20.6522 25 20.4094 25 20.1087V7.06522C25 6.8837 24.9092 6.71413 24.7582 6.61303ZM9.23913 1.08696H15.7609C16.5822 1.08696 17.2637 1.69731 17.3756 2.48758L12.7717 6.57932L7.62727 2.47007C7.74616 1.68802 8.42391 1.08696 9.23913 1.08696ZM17.3913 3.92721V6.82055L8.69565 14.5505V11.6572L13.1385 7.70821C13.1472 7.70051 13.1555 7.69335 13.1637 7.68592L17.3913 3.92721ZM7.6087 3.84681L11.9472 7.31254L10.1929 8.87186L7.6087 6.80436V3.84681ZM7.6087 23.913H5.43478V18.4783H7.6087V23.913ZM7.79074 11.007C7.78702 11.0107 7.78543 11.0158 7.78145 11.0195C7.75173 11.0474 7.73156 11.0827 7.70874 11.1164C7.69176 11.1418 7.67 11.1641 7.65805 11.1912C7.64558 11.2191 7.64293 11.2501 7.63523 11.2798C7.62541 11.3191 7.61241 11.357 7.61135 11.3979C7.61135 11.4032 7.6087 11.4077 7.6087 11.413V17.3913H5.43478V9.23913C5.43478 8.93847 5.19117 8.69565 4.8913 8.69565C4.59144 8.69565 4.34783 8.93847 4.34783 9.23913V19.5652H1.08696V7.35606L6.52174 3.7327V7.06522C6.52174 7.23054 6.59684 7.38632 6.72554 7.48954L9.36837 9.60428L7.79074 11.007ZM19.5652 23.913H8.69565V18.4783H19.5652V23.913ZM23.913 19.5652H20.6522V9.23913C20.6522 8.93847 20.4094 8.69565 20.1087 8.69565C19.808 8.69565 19.5652 8.93847 19.5652 9.23913V17.3913H8.69565V16.005L18.2957 7.47123C18.4119 7.36854 18.4783 7.22019 18.4783 7.06522V3.7327L23.913 7.35606V19.5652Z" fill="#222222"/>
        </g>
        <g id="set-square">
            <g clip-path="url(#clip0)">
                <path d="M29.5581 30.0001H0.55846C0.355899 30.0001 0.173938 29.8786 0.0963466 29.6916C0.0189843 29.5046 0.0620142 29.2896 0.204837 29.1466L29.2045 0.146943C29.3475 0.00343419 29.5624 -0.0395957 29.7494 0.0384532C29.936 0.115358 30.058 0.298464 30.058 0.500338V29.5C30.058 29.7765 29.8339 30.0001 29.5581 30.0001ZM1.76536 29.0001H29.058V1.70746L1.76536 29.0001Z" fill="black"/>
                <path d="M23.5586 24.0001H14.5588C14.3562 24.0001 14.1742 23.8786 14.0966 23.6916C14.0193 23.5046 14.0621 23.2897 14.2051 23.1466L23.205 14.1468C23.3481 14.0037 23.563 13.9602 23.75 14.0383C23.9365 14.1152 24.0585 14.2983 24.0585 14.5001V23.5C24.0585 23.7765 23.8344 24.0001 23.5586 24.0001ZM15.7656 23.0002H23.0585V15.7073L15.7656 23.0002Z" fill="black"/>
                <path d="M29.5581 7.00037H28.058C27.782 7.00037 27.5581 6.77676 27.5581 6.50027C27.5581 6.22378 27.782 6.00039 28.058 6.00039H29.5581C29.8339 6.00039 30.058 6.22378 30.058 6.50027C30.058 6.77676 29.8339 7.00037 29.5581 7.00037Z" fill="black"/>
                <path d="M29.5583 9.00036H27.0582C26.7822 9.00036 26.5583 8.77674 26.5583 8.50025C26.5583 8.22376 26.7822 8.00037 27.0582 8.00037H29.5583C29.8341 8.00037 30.0582 8.22376 30.0582 8.50025C30.0582 8.77674 29.8341 9.00036 29.5583 9.00036Z" fill="black"/>
                <path d="M29.5581 11.0003H28.058C27.782 11.0003 27.5581 10.7767 27.5581 10.5002C27.5581 10.2237 27.782 10.0003 28.058 10.0003H29.5581C29.8339 10.0003 30.058 10.2237 30.058 10.5002C30.058 10.7767 29.8339 11.0003 29.5581 11.0003Z" fill="black"/>
                <path d="M29.5583 13.0003H27.0582C26.7822 13.0003 26.5583 12.7767 26.5583 12.5002C26.5583 12.2237 26.7822 12.0003 27.0582 12.0003H29.5583C29.8341 12.0003 30.0582 12.2237 30.0582 12.5002C30.0582 12.7767 29.8341 13.0003 29.5583 13.0003Z" fill="black"/>
                <path d="M29.5581 15.0003H28.058C27.782 15.0003 27.5581 14.7767 27.5581 14.5002C27.5581 14.2237 27.782 14.0003 28.058 14.0003H29.5581C29.8339 14.0003 30.058 14.2237 30.058 14.5002C30.058 14.7767 29.8339 15.0003 29.5581 15.0003Z" fill="black"/>
                <path d="M29.5583 17.0002H27.0582C26.7822 17.0002 26.5583 16.7766 26.5583 16.5001C26.5583 16.2236 26.7822 16.0003 27.0582 16.0003H29.5583C29.8341 16.0003 30.0582 16.2236 30.0582 16.5001C30.0582 16.7766 29.8341 17.0002 29.5583 17.0002Z" fill="black"/>
                <path d="M29.5581 19.0002H28.058C27.782 19.0002 27.5581 18.7766 27.5581 18.5001C27.5581 18.2236 27.782 18.0002 28.058 18.0002H29.5581C29.8339 18.0002 30.058 18.2236 30.058 18.5001C30.058 18.7766 29.8339 19.0002 29.5581 19.0002Z" fill="black"/>
                <path d="M29.5583 21.0002H27.0582C26.7822 21.0002 26.5583 20.7766 26.5583 20.5001C26.5583 20.2236 26.7822 20.0002 27.0582 20.0002H29.5583C29.8341 20.0002 30.0582 20.2236 30.0582 20.5001C30.0582 20.7766 29.8341 21.0002 29.5583 21.0002Z" fill="black"/>
                <path d="M29.5581 23.0002H28.058C27.782 23.0002 27.5581 22.7765 27.5581 22.5001C27.5581 22.2236 27.782 22.0002 28.058 22.0002H29.5581C29.8339 22.0002 30.058 22.2236 30.058 22.5001C30.058 22.7765 29.8339 23.0002 29.5581 23.0002Z" fill="black"/>
                <path d="M29.5583 25.0001H27.0582C26.7822 25.0001 26.5583 24.7765 26.5583 24.5C26.5583 24.2235 26.7822 24.0002 27.0582 24.0002H29.5583C29.8341 24.0002 30.0582 24.2235 30.0582 24.5C30.0582 24.7765 29.8341 25.0001 29.5583 25.0001Z" fill="black"/>
                <path d="M29.5581 27.0001H28.058C27.782 27.0001 27.5581 26.7765 27.5581 26.5C27.5581 26.2235 27.782 26.0001 28.058 26.0001H29.5581C29.8339 26.0001 30.058 26.2235 30.058 26.5C30.058 26.7765 29.8339 27.0001 29.5581 27.0001Z" fill="black"/>
                <path d="M26.0582 30.0001C25.7822 30.0001 25.5583 29.7765 25.5583 29.5V28.0001C25.5583 27.7236 25.7822 27.5 26.0582 27.5C26.3343 27.5 26.5583 27.7236 26.5583 28.0001V29.5C26.5583 29.7765 26.3343 30.0001 26.0582 30.0001Z" fill="black"/>
                <path d="M24.0585 30C23.7824 30 23.5586 29.7764 23.5586 29.4999V27.0001C23.5586 26.7236 23.7824 26.5 24.0585 26.5C24.3345 26.5 24.5586 26.7236 24.5586 27.0001V29.4999C24.5586 29.7764 24.3345 30 24.0585 30Z" fill="black"/>
                <path d="M22.0582 30.0001C21.7822 30.0001 21.5583 29.7765 21.5583 29.5V28.0001C21.5583 27.7236 21.7822 27.5 22.0582 27.5C22.3343 27.5 22.5583 27.7236 22.5583 28.0001V29.5C22.5583 29.7765 22.3343 30.0001 22.0582 30.0001Z" fill="black"/>
                <path d="M20.0585 30C19.7824 30 19.5586 29.7764 19.5586 29.4999V27.0001C19.5586 26.7236 19.7824 26.5 20.0585 26.5C20.3345 26.5 20.5586 26.7236 20.5586 27.0001V29.4999C20.5586 29.7764 20.3345 30 20.0585 30Z" fill="black"/>
                <path d="M18.0582 30.0001C17.7822 30.0001 17.5583 29.7765 17.5583 29.5V28.0001C17.5583 27.7236 17.7822 27.5 18.0582 27.5C18.3343 27.5 18.5583 27.7236 18.5583 28.0001V29.5C18.5583 29.7765 18.3343 30.0001 18.0582 30.0001Z" fill="black"/>
                <path d="M16.0582 30C15.7822 30 15.5583 29.7764 15.5583 29.4999V27.0001C15.5583 26.7236 15.7822 26.5 16.0582 26.5C16.3343 26.5 16.5583 26.7236 16.5583 27.0001V29.4999C16.5583 29.7764 16.3343 30 16.0582 30Z" fill="black"/>
                <path d="M14.0585 30.0001C13.7824 30.0001 13.5586 29.7765 13.5586 29.5V28.0001C13.5586 27.7236 13.7824 27.5 14.0585 27.5C14.3345 27.5 14.5586 27.7236 14.5586 28.0001V29.5C14.5586 29.7765 14.3345 30.0001 14.0585 30.0001Z" fill="black"/>
                <path d="M12.0582 30C11.7822 30 11.5583 29.7764 11.5583 29.4999V27.0001C11.5583 26.7236 11.7822 26.5 12.0582 26.5C12.3343 26.5 12.5583 26.7236 12.5583 27.0001V29.4999C12.5583 29.7764 12.3343 30 12.0582 30Z" fill="black"/>
                <path d="M10.0585 30.0001C9.78244 30.0001 9.55859 29.7765 9.55859 29.5V28.0001C9.55859 27.7236 9.78244 27.5 10.0585 27.5C10.3345 27.5 10.5586 27.7236 10.5586 28.0001V29.5C10.5586 29.7765 10.3345 30.0001 10.0585 30.0001Z" fill="black"/>
                <path d="M8.05871 30C7.78268 30 7.55884 29.7764 7.55884 29.4999V27.0001C7.55884 26.7236 7.78268 26.5 8.05871 26.5C8.33474 26.5 8.55881 26.7236 8.55881 27.0001V29.4999C8.55881 29.7764 8.33474 30 8.05871 30Z" fill="black"/>
                <path d="M6.05847 30.0001C5.78244 30.0001 5.55859 29.7765 5.55859 29.5V28.0001C5.55859 27.7236 5.78244 27.5 6.05847 27.5C6.33451 27.5 6.55858 27.7236 6.55858 28.0001V29.5C6.55858 29.7765 6.33451 30.0001 6.05847 30.0001Z" fill="black"/>
            </g>
            <defs>
                <clipPath id="clip0">
                    <rect width="30" height="30" fill="white"/>
                </clipPath>
            </defs>
        </g>
        <g id="shopping2">
            <g clip-path="url(#clip0)">
                <path d="M16.0653 3.0892C15.8141 1.32816 14.2812 0 12.4999 0C11.3544 0 10.2664 0.552791 9.58998 1.47924C9.45181 1.66818 9.49315 1.93322 9.68209 2.07138C9.87041 2.20906 10.1361 2.16821 10.274 1.97903C10.7918 1.27056 11.6238 0.847498 12.4998 0.847498C13.8621 0.847498 15.0341 1.86271 15.2263 3.20875C15.2566 3.42016 15.4379 3.57272 15.6454 3.57272C15.6651 3.57272 15.6855 3.57123 15.7057 3.5685C15.9373 3.53536 16.0983 3.32072 16.0653 3.0892Z" fill="#222222"/>
                <path d="M22.1853 7.83268L20.9141 5.714C20.8376 5.58626 20.6997 5.5083 20.5507 5.5083H19.3326C19.0987 5.5083 18.9089 5.69811 18.9089 5.93199C18.9089 6.16587 19.0987 6.35567 19.3326 6.35567H20.3109L21.0736 7.62686H3.92615L4.68886 6.35567H5.13762C5.3715 6.35567 5.56131 6.16587 5.56131 5.93199C5.56131 5.69811 5.3715 5.5083 5.13762 5.5083H4.44902C4.30006 5.5083 4.16214 5.58626 4.08567 5.714L2.81448 7.83268C2.7359 7.96377 2.73404 8.12677 2.80914 8.2596C2.88425 8.39242 3.02502 8.4746 3.17784 8.4746H21.8219C21.9747 8.4746 22.1154 8.39242 22.1906 8.2596C22.2658 8.12677 22.2639 7.96352 22.1853 7.83268Z" fill="#222222"/>
                <path d="M20.0732 3.92568C20.0139 3.82997 19.9192 3.76207 19.8097 3.73649L14.0334 2.38549C13.924 2.35979 13.8088 2.37891 13.7132 2.438C13.6179 2.49734 13.5498 2.59206 13.5243 2.70155L13.0887 4.56363C13.0353 4.79143 13.1768 5.01935 13.4047 5.07248C13.6325 5.12586 13.8607 4.98434 13.9138 4.75642L14.253 3.3071L19.204 4.46519L18.426 7.7915C18.3726 8.01929 18.5142 8.24721 18.7421 8.30034C18.7747 8.30792 18.8071 8.31152 18.8391 8.31152C19.0316 8.31152 19.2057 8.17968 19.251 7.98441L20.1256 4.24559C20.1514 4.13622 20.1326 4.02102 20.0732 3.92568Z" fill="#222222"/>
                <path d="M12.7239 4.92736L12.3379 1.66188C12.3247 1.55028 12.2677 1.44836 12.1793 1.37884C12.0909 1.30932 11.9793 1.27754 11.8672 1.2907L4.78014 2.12839C4.54788 2.15595 4.38178 2.36649 4.40921 2.599L5.05287 8.04536C5.07845 8.26099 5.2613 8.41951 5.47321 8.41951C5.48972 8.41951 5.50673 8.4184 5.52361 8.41654C5.75575 8.38898 5.92185 8.17844 5.89454 7.94592L5.30053 2.92003L11.5461 2.1819L11.8823 5.02654C11.9098 5.25893 12.1194 5.42404 12.3529 5.39772C12.5851 5.37041 12.7512 5.15975 12.7239 4.92736Z" fill="#222222"/>
                <path d="M16.0752 7.88974L15.2341 4.39225C15.2078 4.28313 15.1392 4.18866 15.0435 4.12995C14.9478 4.07173 14.8329 4.05348 14.7231 4.07955L7.89703 5.72116C7.66948 5.77578 7.52945 6.00469 7.58408 6.23224L8.00441 7.98037C8.05903 8.20816 8.28794 8.34831 8.51537 8.29332C8.74291 8.2387 8.88294 8.00979 8.82832 7.78224L8.50693 6.44601L14.5091 5.00277L15.251 8.08812C15.2976 8.2824 15.4714 8.41274 15.6627 8.41274C15.6956 8.41274 15.7288 8.40889 15.7622 8.40082C15.9898 8.34608 16.1298 8.11729 16.0752 7.88974Z" fill="#222222"/>
                <path d="M22.2453 8.02928C22.2336 7.80409 22.0476 7.62732 21.8219 7.62732H3.17786C2.95218 7.62732 2.76622 7.80397 2.75455 8.02928L1.90705 24.5547C1.90109 24.6706 1.94305 24.7841 2.023 24.8683C2.10307 24.9523 2.21405 25.0001 2.33024 25.0001H22.6692C22.7853 25.0001 22.8964 24.9524 22.9768 24.8683C23.0566 24.7841 23.0986 24.6707 23.0928 24.5547L22.2453 8.02928ZM2.77615 24.1526L3.5802 8.47469H21.4191L22.2232 24.1526H2.77615Z" fill="#222222"/>
                <path d="M15.6777 9.32202C14.9767 9.32202 14.4065 9.89219 14.4065 10.5932C14.4065 11.2942 14.9767 11.8644 15.6777 11.8644C16.3787 11.8644 16.9489 11.2942 16.9489 10.5932C16.9489 9.89219 16.3787 9.32202 15.6777 9.32202ZM15.6777 11.017C15.4439 11.017 15.254 10.827 15.254 10.5933C15.254 10.3597 15.4441 10.1696 15.6777 10.1696C15.9113 10.1696 16.1014 10.3597 16.1014 10.5933C16.1014 10.827 15.9113 11.017 15.6777 11.017Z" fill="#222222"/>
                <path d="M9.32197 9.32202C8.62095 9.32202 8.05078 9.89219 8.05078 10.5932C8.05078 11.2942 8.62095 11.8644 9.32197 11.8644C10.023 11.8644 10.5932 11.2942 10.5932 10.5932C10.5932 9.89219 10.023 9.32202 9.32197 9.32202ZM9.32197 11.017C9.08834 11.017 8.89828 10.827 8.89828 10.5933C8.89828 10.3597 9.08834 10.1696 9.32197 10.1696C9.5556 10.1696 9.74565 10.3597 9.74565 10.5933C9.74565 10.827 9.5556 11.017 9.32197 11.017Z" fill="#222222"/>
                <path d="M15.6778 10.5931H15.6452C15.4113 10.5931 15.2215 10.7829 15.2215 11.0168C15.2215 11.0747 15.2329 11.1299 15.2541 11.1802V13.3473C15.2541 14.8659 14.0186 16.1016 12.4998 16.1016C10.9811 16.1016 9.74557 14.866 9.74557 13.3473V11.017C9.74557 10.7831 9.55576 10.5933 9.32188 10.5933C9.088 10.5933 8.89819 10.7831 8.89819 11.017V13.3474C8.89819 15.3334 10.5139 16.9491 12.4998 16.9491C14.4858 16.9491 16.1015 15.3334 16.1015 13.3474V11.017C16.1015 10.7831 15.9117 10.5931 15.6778 10.5931Z" fill="#222222"/>
            </g>
            <defs>
                <clipPath id="clip0">
                    <rect width="25" height="25" fill="white"/>
                </clipPath>
            </defs>
        </g>
        <g id="floors">
                <path d="M29.4884 0H20.7611C20.5353 0 20.3521 0.183136 20.3521 0.409091V3.34091H9.64751V0.409091C9.64751 0.183136 9.46437 0 9.23841 0H0.511142C0.285187 0 0.102051 0.183136 0.102051 0.409091V29.5909C0.102051 29.8169 0.285187 30 0.511142 30H29.4884C29.7143 30 29.8975 29.8169 29.8975 29.5909V0.409091C29.8975 0.183136 29.7144 0 29.4884 0ZM8.82932 29.1818H0.920233V0.818182H8.82932V29.1818ZM20.3521 4.15909V29.1818H19.3634V22.9091C19.3634 22.6832 19.1802 22.5 18.9543 22.5H11.0452C10.8193 22.5 10.6361 22.6832 10.6361 22.9091V29.1818H9.64751V4.15909H20.3521ZM16.1248 23.3182V24H13.8748V23.3182H16.1248ZM18.5452 23.3182V24H16.943V23.3182H18.5452ZM13.0566 24H11.4543V23.3182H13.0566V24ZM11.4543 24.8182H13.0566V29.1818H11.4543V24.8182ZM13.8748 24.8182H16.1248V29.1818H13.8748V24.8182ZM16.943 24.8182H18.5452V29.1818H16.943V24.8182ZM29.0793 29.1818H21.1702V0.818182H29.0793V29.1818Z" fill="black"/>
                <path d="M11.0453 21.3409H18.9544C19.1803 21.3409 19.3635 21.1577 19.3635 20.9318V18.4414C19.3635 18.2155 19.1803 18.0323 18.9544 18.0323H11.0453C10.8194 18.0323 10.6362 18.2155 10.6362 18.4414V20.9318C10.6362 21.1577 10.8194 21.3409 11.0453 21.3409ZM13.8749 20.5227V18.8505H16.1249V20.5227H13.8749ZM18.5453 20.5227H16.943V18.8505H18.5453V20.5227ZM11.4544 18.8505H13.0567V20.5227H11.4544V18.8505Z" fill="black"/>
                <path d="M11.0453 17.1029H18.9544C19.1803 17.1029 19.3635 16.9197 19.3635 16.6938V14.2034C19.3635 13.9775 19.1803 13.7943 18.9544 13.7943H11.0453C10.8194 13.7943 10.6362 13.9775 10.6362 14.2034V16.6938C10.6362 16.9197 10.8194 17.1029 11.0453 17.1029ZM13.8749 16.2847V14.6125H16.1249V16.2847H13.8749ZM18.5453 16.2847H16.943V14.6125H18.5453V16.2847ZM11.4544 14.6125H13.0567V16.2847H11.4544V14.6125Z" fill="black"/>
                <path d="M11.0453 12.8648H18.9544C19.1803 12.8648 19.3635 12.6816 19.3635 12.4557V9.9653C19.3635 9.73942 19.1803 9.55621 18.9544 9.55621H11.0453C10.8194 9.55621 10.6362 9.73942 10.6362 9.9653V12.4557C10.6362 12.6816 10.8194 12.8648 11.0453 12.8648ZM13.8749 12.0466V10.3744H16.1249V12.0466H13.8749ZM18.5453 12.0466H16.943V10.3744H18.5453V12.0466ZM11.4544 10.3744H13.0567V12.0466H11.4544V10.3744Z" fill="black"/>
                <path d="M11.0453 8.62678H18.9544C19.1803 8.62678 19.3635 8.44357 19.3635 8.21768V5.72727C19.3635 5.50139 19.1803 5.31818 18.9544 5.31818H11.0453C10.8194 5.31818 10.6362 5.50139 10.6362 5.72727V8.21768C10.6362 8.44357 10.8194 8.62678 11.0453 8.62678ZM13.8749 7.80859V6.13637H16.1249V7.80859H13.8749ZM18.5453 7.80859H16.943V6.13637H18.5453V7.80859ZM11.4544 6.13637H13.0567V7.80859H11.4544V6.13637Z" fill="black"/>
                <path d="M3.61319 27.5455H6.13592C6.36181 27.5455 6.54501 27.3623 6.54501 27.1364V2.65909C6.54501 2.4332 6.36181 2.25 6.13592 2.25H3.61319C3.38731 2.25 3.2041 2.4332 3.2041 2.65909V27.1364C3.2041 27.3623 3.38724 27.5455 3.61319 27.5455ZM4.02228 26.7273V24.4858H5.72683V26.7273H4.02228ZM5.72683 9.1875V11.429H4.02228V9.1875H5.72683ZM4.02228 8.36932V6.12784H5.72683V8.36932H4.02228ZM5.72683 12.2472V14.4886H4.02228V12.2472H5.72683ZM5.72683 15.3068V17.5483H4.02228V15.3068H5.72683ZM5.72683 18.3665V20.608H4.02228V18.3665H5.72683ZM5.72683 21.4261V23.6676H4.02228V21.4261H5.72683ZM5.72683 3.06818V5.30966H4.02228V3.06818H5.72683Z" fill="black"/>
                <path d="M23.8632 27.5455H26.3859C26.6118 27.5455 26.795 27.3623 26.795 27.1364V2.65909C26.795 2.4332 26.6118 2.25 26.3859 2.25H23.8632C23.6373 2.25 23.4541 2.4332 23.4541 2.65909V27.1364C23.4541 27.3623 23.6373 27.5455 23.8632 27.5455ZM24.2723 26.7273V24.4858H25.9768V26.7273H24.2723ZM25.9768 9.1875V11.429H24.2723V9.1875H25.9768ZM24.2723 8.36932V6.12784H25.9768V8.36932H24.2723ZM25.9768 12.2472V14.4886H24.2723V12.2472H25.9768ZM25.9768 15.3068V17.5483H24.2723V15.3068H25.9768ZM25.9768 18.3665V20.608H24.2723V18.3665H25.9768ZM25.9768 21.4261V23.6676H24.2723V21.4261H25.9768ZM25.9768 3.06818V5.30966H24.2723V3.06818H25.9768Z" fill="black"/>
        </g>
        <g id="education">
            <path d="M34.1638 13.1895L17.7576 4.43955C17.5963 4.35369 17.4043 4.35369 17.243 4.43955L0.836719 13.1895C0.657891 13.2847 0.546875 13.4701 0.546875 13.6719C0.546875 13.8737 0.657891 14.0591 0.836172 14.1542L5.46875 16.625V23.5156H6.5625V17.2085L8.20312 18.0835V21.4058C7.26195 21.6502 6.5625 22.499 6.5625 23.5156C6.5625 24.0155 6.7375 24.471 7.02078 24.8402C6.72219 25.8612 6.5625 26.9139 6.5625 27.9792V29.5313C6.5625 29.7385 6.67953 29.9277 6.86492 30.0207L7.46922 30.3231C7.86516 30.5206 8.30758 30.625 8.75 30.625C9.19242 30.625 9.63484 30.5206 10.0308 30.3226L10.6351 30.0202C10.8205 29.9277 10.9375 29.7385 10.9375 29.5313V27.9792C10.9375 26.9139 10.7778 25.8612 10.4792 24.8402C10.7625 24.471 10.9375 24.0155 10.9375 23.5156C10.9375 22.499 10.238 21.6502 9.29688 21.4058V18.667L17.2424 22.9048C17.3234 22.9474 17.4114 22.9688 17.5 22.9688C17.5886 22.9688 17.6766 22.9474 17.7576 22.9048L28.4375 17.2085V23.2455C25.3958 25.5374 21.6388 26.7969 17.8276 26.7969H17.173C15.2955 26.7969 13.4395 26.4988 11.6555 25.911L11.3138 26.95C13.207 27.574 15.1791 27.8906 17.1724 27.8906H17.827C21.9691 27.8906 26.0504 26.4901 29.3202 23.9471C29.453 23.8438 29.5312 23.6846 29.5312 23.5156V16.625L34.1638 14.1542C34.3421 14.0591 34.4531 13.8737 34.4531 13.6719C34.4531 13.4701 34.3421 13.2847 34.1638 13.1895ZM9.84375 29.1933L9.54133 29.3442C9.05188 29.5887 8.44758 29.5887 7.95813 29.3442L7.65625 29.1933V27.9792C7.65625 27.1573 7.75633 26.343 7.95375 25.5478C8.20094 25.6452 8.46836 25.7031 8.75 25.7031C9.03164 25.7031 9.29906 25.6452 9.54625 25.5478C9.74367 26.343 9.84375 27.1573 9.84375 27.9792V29.1933ZM9.84375 23.5156C9.84375 24.1188 9.3532 24.6094 8.75 24.6094C8.1468 24.6094 7.65625 24.1188 7.65625 23.5156C7.65625 22.9124 8.1468 22.4219 8.75 22.4219C9.3532 22.4219 9.84375 22.9124 9.84375 23.5156ZM17.5 21.8017L9.67313 17.6274L16.4484 14.0142C16.7595 14.1411 17.1139 14.2188 17.5 14.2188C18.7266 14.2188 19.6875 13.498 19.6875 12.5781C19.6875 11.6583 18.7266 10.9375 17.5 10.9375C16.2734 10.9375 15.3125 11.6583 15.3125 12.5781C15.3125 12.8281 15.3885 13.061 15.5165 13.2716L8.51102 17.0078L2.25586 13.6719L17.5 5.5415L32.7441 13.6719L17.5 21.8017ZM16.4062 12.5781C16.4062 12.355 16.8323 12.0313 17.5 12.0313C18.1677 12.0313 18.5938 12.355 18.5938 12.5781C18.5938 12.8013 18.1677 13.125 17.5 13.125C16.8323 13.125 16.4062 12.8013 16.4062 12.5781Z" fill="#222222"/>
        </g>
        <g id="filter-down">
            <path d="M9.84016 0.493663L9.5126 0.163823C9.40951 0.0608136 9.27235 0.00406517 9.12577 0.00406517C8.97926 0.00406517 8.84194 0.0608136 8.73885 0.163823L5.00224 3.9006L1.26131 0.159676C1.15838 0.0566672 1.02107 0 0.87456 0C0.728055 0 0.590655 0.0566672 0.487646 0.159676L0.160001 0.487484C-0.0533338 0.700656 -0.0533338 1.04789 0.160001 1.26107L4.61402 5.7311C4.71695 5.83403 4.8541 5.90655 5.00191 5.90655H5.00362C5.1502 5.90655 5.28736 5.83395 5.39029 5.7311L9.84016 1.27318C9.94325 1.17025 9.99984 1.02895 10 0.882446C10 0.73586 9.94325 0.596509 9.84016 0.493663Z" fill="#717171"/>
        </g>
    </defs>
</svg>