<svg xmlns="http://www.w3.org/2000/svg">
    <defs>
        <g id="logo">
            <path d="M10.8489 13.2417H7.13961V20.1376C7.13961 20.7073 7.28798 21.127 7.55505 21.3969C7.85179 21.6667 8.26723 21.8166 8.80136 21.8466C9.3355 21.8766 10.018 21.8766 10.8192 21.8166V25.6843C7.91114 26.0141 5.86362 25.7443 4.67665 24.8448C3.48968 23.9753 2.8962 22.3863 2.8962 20.1076V13.2117H0.0771484V9.13407H2.92587V5.80603L7.16928 4.51678V9.16405H10.8786V13.2417H10.8489Z"
                  fill="black"/>
            <path d="M22.9562 8.6843C24.7366 8.6843 26.2203 9.28395 27.4073 10.5132C28.5646 11.7425 29.1581 13.3915 29.1581 15.5503V25.6843H24.9147V16.06C24.9147 14.9506 24.6179 14.1111 24.0244 13.5115C23.431 12.9118 22.6594 12.642 21.6505 12.642C20.5526 12.642 19.692 12.9718 19.0392 13.6614C18.3863 14.351 18.0599 15.3704 18.0599 16.7496V25.6843H13.8462V2.50793H18.0896V10.9929C19.0985 9.43386 20.7306 8.6843 22.9562 8.6843Z"
                  fill="black"/>
            <path d="M36.3389 19.1782C36.9027 21.2469 38.4458 22.2963 40.9681 22.2963C42.5705 22.2963 43.8168 21.7566 44.6477 20.6473L48.0602 22.6261C46.4282 24.9947 44.0542 26.164 40.9088 26.164C38.2084 26.164 36.0125 25.3245 34.3804 23.6755C32.7484 22.0265 31.9175 19.9277 31.9175 17.4092C31.9175 14.9207 32.7187 12.8219 34.3508 11.1729C35.9532 9.49385 38.0304 8.68433 40.5823 8.68433C42.986 8.68433 44.9741 9.52383 46.5469 11.2028C48.1196 12.8819 48.8911 14.9506 48.8911 17.4392C48.8911 17.9789 48.8318 18.5785 48.7131 19.2081L36.3389 19.1782ZM36.2499 15.8501H44.618C44.3806 14.7108 43.8762 13.8713 43.1343 13.3316C42.3925 12.7919 41.5319 12.4921 40.5527 12.4921C39.4251 12.4921 38.4755 12.7919 37.7336 13.3616C36.9918 13.9912 36.517 14.8007 36.2499 15.8501Z"
                  fill="black"/>
            <path d="M55.2413 19.1782C55.8051 21.2469 57.3481 22.2963 59.8705 22.2963C61.4729 22.2963 62.7192 21.7566 63.5501 20.6473L66.9626 22.6261C65.3305 24.9947 62.9566 26.164 59.8111 26.164C57.1108 26.164 54.9149 25.3245 53.2828 23.6755C51.6507 22.0265 50.8198 19.9277 50.8198 17.4092C50.8198 14.9207 51.621 12.8219 53.2531 11.1729C54.8555 9.49385 56.9327 8.68433 59.4847 8.68433C61.8883 8.68433 63.8765 9.52383 65.4492 11.2028C67.0219 12.8819 67.7935 14.9506 67.7935 17.4392C67.7935 17.9789 67.7341 18.5785 67.6154 19.2081L55.2413 19.1782ZM55.1819 15.8501H63.5501C63.3127 14.7108 62.8082 13.8713 62.0663 13.3316C61.3245 12.7919 60.4639 12.4921 59.4847 12.4921C58.3571 12.4921 57.4075 12.7919 56.6656 13.3616C55.9238 13.9912 55.4193 14.8007 55.1819 15.8501Z"
                  fill="black"/>
            <path d="M80.7614 9.13403H85.2719L79.3074 25.6843C78.4468 28.0829 77.3192 29.7919 75.9245 30.8713C74.5001 31.9506 72.7494 32.4303 70.6722 32.3104V28.3527C71.7998 28.3827 72.7197 28.1429 73.3725 27.6332C74.0253 27.1235 74.5595 26.3139 74.9749 25.1746L68.2686 9.13403H72.8977L77.1708 20.2575L80.7614 9.13403Z"
                  fill="black"/>
            <path d="M90.1978 19.1782C90.7616 21.2469 92.3047 22.2963 94.827 22.2963C96.4294 22.2963 97.6757 21.7566 98.5066 20.6473L101.919 22.6261C100.287 24.9947 97.9131 26.164 94.7677 26.164C92.0673 26.164 89.8714 25.3245 88.2393 23.6755C86.6073 22.0265 85.7764 19.9277 85.7764 17.4092C85.7764 14.9207 86.5776 12.8219 88.2097 11.1729C89.8121 9.49385 91.8893 8.68433 94.4412 8.68433C96.8449 8.68433 98.833 9.52383 100.376 11.2028C101.949 12.8819 102.72 14.9506 102.72 17.4392C102.72 17.9789 102.661 18.5785 102.542 19.2081L90.1978 19.1782ZM90.1088 15.8501H98.4769C98.2395 14.7108 97.7351 13.8713 96.9932 13.3316C96.2514 12.7919 95.3908 12.4921 94.4116 12.4921C93.2839 12.4921 92.3344 12.7919 91.5925 13.3616C90.8507 13.9912 90.3759 14.8007 90.1088 15.8501Z"
                  fill="black"/>
            <path d="M110.643 2.80776C115.332 5.26632 119.486 10.4233 121.504 15.1605C118.626 11.8624 116.341 9.79366 112.839 7.72487C111.237 6.79542 108.358 5.53616 106.4 5.08642C101.652 4.03704 99.1297 4.57672 95.4204 3.7672C93.5212 3.34745 94.3224 2.11817 95.3314 1.51852C99.4561 -0.850084 106.073 0.409175 110.643 2.80776Z"
                  fill="black"/>
        </g>
        <g id="sign-in">
            <path d="M9.41202 7.41891C10.4358 6.67225 11.1025 5.46387 11.1025 4.10256C11.1025 1.84041 9.26208 0 6.99993 0C4.73777 0 2.89737 1.84041 2.89737 4.10256C2.89737 5.46387 3.56402 6.67225 4.58784 7.41891C2.04284 8.39281 0.230713 10.8603 0.230713 13.7436C0.230713 14.9878 1.24293 16 2.48712 16H11.5127C12.7569 16 13.7691 14.9878 13.7691 13.7436C13.7691 10.8603 11.957 8.39281 9.41202 7.41891ZM4.12815 4.10256C4.12815 2.51906 5.41643 1.23078 6.99993 1.23078C8.58343 1.23078 9.87171 2.51906 9.87171 4.10256C9.87171 5.68606 8.58343 6.97437 6.99993 6.97437C5.41643 6.97437 4.12815 5.68606 4.12815 4.10256ZM11.5127 14.7692H2.48712C1.92159 14.7692 1.46149 14.3091 1.46149 13.7436C1.46149 10.6896 3.94599 8.20509 6.99996 8.20509C10.0539 8.20509 12.5384 10.6896 12.5384 13.7436C12.5384 14.3091 12.0783 14.7692 11.5127 14.7692Z"
                  fill="white"/>
        </g>
        <g id="search">
            <g clip-path="url(#clip0)">
                <path d="M8.80758 0C3.95121 0 0 3.95121 0 8.80758C0 13.6642 3.95121 17.6152 8.80758 17.6152C13.6642 17.6152 17.6152 13.6642 17.6152 8.80758C17.6152 3.95121 13.6642 0 8.80758 0ZM8.80758 15.9892C4.8477 15.9892 1.62602 12.7675 1.62602 8.80762C1.62602 4.84773 4.8477 1.62602 8.80758 1.62602C12.7675 1.62602 15.9891 4.8477 15.9891 8.80758C15.9891 12.7675 12.7675 15.9892 8.80758 15.9892Z"
                      fill="white"/>
                <path d="M19.7617 18.6122L15.1005 13.951C14.7829 13.6333 14.2685 13.6333 13.9509 13.951C13.6332 14.2683 13.6332 14.7832 13.9509 15.1006L18.6121 19.7618C18.7709 19.9206 18.9788 20 19.1869 20C19.3948 20 19.6029 19.9206 19.7617 19.7618C20.0794 19.4445 20.0794 18.9296 19.7617 18.6122Z"
                      fill="white"/>
            </g>
            <defs>
                <clipPath id="clip0">
                    <rect width="20" height="20" fill="white"/>
                </clipPath>
            </defs>
        </g>
        <g id="search2">
            <path d="M8.80758 0C3.95121 0 0 3.95121 0 8.80758C0 13.6642 3.95121 17.6152 8.80758 17.6152C13.6642 17.6152 17.6152 13.6642 17.6152 8.80758C17.6152 3.95121 13.6642 0 8.80758 0ZM8.80758 15.9892C4.8477 15.9892 1.62602 12.7675 1.62602 8.80762C1.62602 4.84773 4.8477 1.62602 8.80758 1.62602C12.7675 1.62602 15.9891 4.8477 15.9891 8.80758C15.9891 12.7675 12.7675 15.9892 8.80758 15.9892Z"
                  fill="#222222"/>
            <path d="M19.762 18.6121L15.1007 13.9509C14.7831 13.6332 14.2687 13.6332 13.9511 13.9509C13.6335 14.2682 13.6335 14.7831 13.9511 15.1005L18.6124 19.7617C18.7712 19.9205 18.9791 19.9999 19.1872 19.9999C19.395 19.9999 19.6032 19.9205 19.762 19.7617C20.0796 19.4444 20.0796 18.9295 19.762 18.6121Z"
                  fill="#222222"/>
        </g>
        <g id="header-avatar">
            <path d="M13.0152 9.27363C14.2949 8.34031 15.1283 6.82984 15.1283 5.1282C15.1283 2.30051 12.8278 0 10.0001 0C7.1724 0 4.87189 2.30051 4.87189 5.1282C4.87189 6.82984 5.70521 8.34031 6.98498 9.27363C3.80373 10.491 1.53857 13.5754 1.53857 17.1795C1.53857 18.7347 2.80385 20 4.35908 20H15.6411C17.1963 20 18.4616 18.7347 18.4616 17.1795C18.4616 13.5754 16.1965 10.491 13.0152 9.27363ZM6.41037 5.1282C6.41037 3.14883 8.02072 1.53848 10.0001 1.53848C11.9795 1.53848 13.5898 3.14883 13.5898 5.1282C13.5898 7.10758 11.9795 8.71797 10.0001 8.71797C8.02072 8.71797 6.41037 7.10758 6.41037 5.1282ZM15.6411 18.4615H4.35908C3.65217 18.4615 3.07705 17.8864 3.07705 17.1795C3.07705 13.362 6.18267 10.2564 10.0001 10.2564C13.8176 10.2564 16.9232 13.362 16.9232 17.1795C16.9232 17.8864 16.3481 18.4615 15.6411 18.4615Z"
                  fill="#222222"/>
        </g>
        <g id="header-burger">
            <rect x="20" y="18" width="20" height="2" transform="rotate(-180 20 18)" fill="#222222"/>
            <rect x="20" y="10" width="20" height="2" transform="rotate(-180 20 10)" fill="#222222"/>
            <rect x="20" y="2" width="15" height="2" transform="rotate(-180 20 2)" fill="#222222"/>
        </g>
        <g id="carousel-next">
            <path d="M0.545936 6.00521L5.23092 10.7001C5.36466 10.8341 5.5429 10.9077 5.73296 10.9077C5.92323 10.9077 6.10137 10.834 6.2351 10.7001L6.66047 10.2737C6.7941 10.1399 6.86771 9.9612 6.86771 9.77064C6.86771 9.58018 6.7941 9.39544 6.66047 9.26163L3.92731 6.51675L12.6107 6.51675C13.0022 6.51675 13.3115 6.20962 13.3115 5.81719L13.3115 5.21444C13.3115 4.82201 13.0022 4.48391 12.6107 4.48391L3.8963 4.48391L6.66036 1.7237C6.79399 1.58969 6.86761 1.41583 6.86761 1.22527C6.86761 1.03492 6.79399 0.858522 6.66036 0.724613L6.235 0.299632C6.10126 0.165617 5.92312 0.0925859 5.73286 0.0925859C5.5428 0.0925858 5.36455 0.166568 5.23082 0.300583L0.54583 4.99534C0.411778 5.12978 0.338054 5.30924 0.338582 5.50001C0.33816 5.69142 0.411778 5.87099 0.545936 6.00521Z"
                  fill="#717171"/>
        </g>
        <g id="carousel-prev">
            <path d="M13.4482 4.99479L8.76322 0.299922C8.62948 0.165907 8.45124 0.0923462 8.26118 0.0923462C8.07091 0.0923462 7.89277 0.166012 7.75904 0.299922L7.33367 0.726276C7.20004 0.86008 7.12643 1.0388 7.12643 1.22936C7.12643 1.41982 7.20004 1.60456 7.33367 1.73837L10.0668 4.48325L1.38347 4.48325C0.991961 4.48325 0.682617 4.79038 0.682617 5.18281V5.78556C0.682617 6.17799 0.991961 6.51609 1.38347 6.51609L10.0978 6.51609L7.33378 9.2763C7.20015 9.41031 7.12653 9.58417 7.12653 9.77473C7.12653 9.96508 7.20015 10.1415 7.33378 10.2754L7.75914 10.7004C7.89288 10.8344 8.07102 10.9074 8.26129 10.9074C8.45134 10.9074 8.62959 10.8334 8.76332 10.6994L13.4483 6.00466C13.5824 5.87022 13.6561 5.69076 13.6556 5.49999C13.656 5.30858 13.5824 5.12901 13.4482 4.99479Z"
                  fill="#717171"/>
        </g>
        <g id="location">
            <path d="M6.99998 3.00952C5.56684 3.00952 4.40088 4.17549 4.40088 5.60863C4.40088 7.04177 5.56684 8.20773 6.99998 8.20773C8.43312 8.20773 9.59909 7.04177 9.59909 5.60863C9.59909 4.17549 8.43315 3.00952 6.99998 3.00952ZM6.99998 7.11338C6.17026 7.11338 5.49523 6.43834 5.49523 5.60863C5.49523 4.77891 6.17026 4.10387 6.99998 4.10387C7.8297 4.10387 8.50474 4.77891 8.50474 5.60863C8.50474 6.43834 7.8297 7.11338 6.99998 7.11338Z"
                  fill="#717171"/>
            <path d="M7.00021 0C3.90761 0 1.3916 2.51604 1.3916 5.60861V5.76365C1.3916 7.32771 2.28831 9.15034 4.05691 11.1808C5.339 12.6528 6.60318 13.6791 6.65634 13.7221L7.00021 14L7.34409 13.7222C7.39727 13.6792 8.66146 12.6528 9.94352 11.1808C11.7121 9.15034 12.6088 7.32774 12.6088 5.76368V5.60864C12.6088 2.51604 10.0928 0 7.00021 0ZM11.5145 5.76368C11.5145 8.40686 8.10878 11.6065 7.00021 12.5778C5.89134 11.6062 2.48595 8.40667 2.48595 5.76368V5.60864C2.48595 3.11948 4.51106 1.09438 7.00021 1.09438C9.48937 1.09438 11.5145 3.11948 11.5145 5.60864V5.76368Z"
                  fill="#717171"/>
        </g>
        <g id="pool">
            <path d="M4.16669 41.6667C4.63996 42.3261 5.26663 42.8603 5.99257 43.2233C6.71851 43.5862 7.5219 43.767 8.33335 43.75C9.1448 43.767 9.94819 43.5862 10.6741 43.2233C11.4001 42.8603 12.0267 42.3261 12.5 41.6667C12.9733 41.0073 13.6 40.4731 14.3259 40.1101C15.0518 39.7472 15.8552 39.5664 16.6667 39.5834C17.4781 39.5664 18.2815 39.7472 19.0075 40.1101C19.7334 40.4731 20.3601 41.0073 20.8334 41.6667C21.3066 42.3261 21.9333 42.8603 22.6592 43.2233C23.3852 43.5862 24.1886 43.767 25 43.75C25.8115 43.767 26.6149 43.5862 27.3408 43.2233C28.0667 42.8603 28.6934 42.3261 29.1667 41.6667C29.64 41.0073 30.2666 40.4731 30.9926 40.1101C31.7185 39.7472 32.5219 39.5664 33.3334 39.5834C34.1448 39.5664 34.9482 39.7472 35.6741 40.1101C36.4001 40.4731 37.0268 41.0073 37.5 41.6667C37.9733 42.3261 38.6 42.8603 39.3259 43.2233C40.0519 43.5862 40.8552 43.767 41.6667 43.75C42.4781 43.767 43.2815 43.5862 44.0075 43.2233C44.7334 42.8603 45.3601 42.3261 45.8334 41.6667"
                  stroke="#222222" stroke-width="2" stroke-linecap="round" stroke-linejoin="round"/>
            <path d="M4.16669 33.3335C4.63996 33.9928 5.26663 34.5271 5.99257 34.89C6.71851 35.253 7.5219 35.4338 8.33335 35.4168C9.1448 35.4338 9.94819 35.253 10.6741 34.89C11.4001 34.5271 12.0267 33.9928 12.5 33.3335C12.9733 32.6741 13.6 32.1399 14.3259 31.7769C15.0518 31.4139 15.8552 31.2331 16.6667 31.2501C17.4781 31.2331 18.2815 31.4139 19.0075 31.7769C19.7334 32.1399 20.3601 32.6741 20.8334 33.3335C21.3066 33.9928 21.9333 34.5271 22.6592 34.89C23.3852 35.253 24.1886 35.4338 25 35.4168C25.8115 35.4338 26.6149 35.253 27.3408 34.89C28.0667 34.5271 28.6934 33.9928 29.1667 33.3335C29.64 32.6741 30.2666 32.1399 30.9926 31.7769C31.7185 31.4139 32.5219 31.2331 33.3334 31.2501C34.1448 31.2331 34.9482 31.4139 35.6741 31.7769C36.4001 32.1399 37.0268 32.6741 37.5 33.3335C37.9733 33.9928 38.6 34.5271 39.3259 34.89C40.0519 35.253 40.8552 35.4338 41.6667 35.4168C42.4781 35.4338 43.2815 35.253 44.0075 34.89C44.7334 34.5271 45.3601 33.9928 45.8334 33.3335"
                  stroke="#222222" stroke-width="2" stroke-linecap="round" stroke-linejoin="round"/>
            <path d="M31.25 25V9.375C31.25 8.5462 31.5792 7.75134 32.1653 7.16529C32.7513 6.57924 33.5462 6.25 34.375 6.25C35.2038 6.25 35.9987 6.57924 36.5847 7.16529C37.1708 7.75134 37.5 8.5462 37.5 9.375"
                  stroke="#222222" stroke-width="2" stroke-linecap="round" stroke-linejoin="round"/>
            <path d="M18.75 25V9.375C18.75 8.5462 18.4208 7.75134 17.8347 7.16529C17.2487 6.57924 16.4538 6.25 15.625 6.25C14.7962 6.25 14.0013 6.57924 13.4153 7.16529C12.8292 7.75134 12.5 8.5462 12.5 9.375"
                  stroke="#222222" stroke-width="2" stroke-linecap="round" stroke-linejoin="round"/>
            <path d="M31.25 10.4166H18.75" stroke="#222222" stroke-width="2" stroke-linecap="round"
                  stroke-linejoin="round"/>
            <path d="M18.75 20.8334H31.25" stroke="#222222" stroke-width="2" stroke-linecap="round"
                  stroke-linejoin="round"/>
        </g>
        <g id="parking">
            <path d="M40.4999 8.99976H13.4999C11.0147 8.99976 8.99994 11.0145 8.99994 13.4998V40.4997C8.99994 42.985 11.0147 44.9997 13.4999 44.9997H40.4999C42.9852 44.9997 44.9999 42.985 44.9999 40.4997V13.4998C44.9999 11.0145 42.9852 8.99976 40.4999 8.99976Z"
                  stroke="#222222" stroke-width="2.16" stroke-linecap="round" stroke-linejoin="round"/>
            <path d="M20.2499 36V18H29.2499C30.4434 18 31.588 18.4741 32.4319 19.318C33.2758 20.1619 33.7499 21.3065 33.7499 22.5C33.7499 23.6935 33.2758 24.8381 32.4319 25.682C31.588 26.5259 30.4434 27 29.2499 27H20.2499"
                  stroke="#222222" stroke-width="2.16" stroke-linecap="round" stroke-linejoin="round"/>
        </g>
        <g id="gym">
            <path d="M57.2427 10.3636H56.2428V6.54547C56.2428 5.02483 55.0057 3.7878 53.4852 3.7878H51.6064C51.2538 3.7878 50.9167 3.85506 50.6065 3.97623V2.78795C50.6065 1.26731 49.3694 0.0302734 47.8489 0.0302734H44.0912C42.5706 0.0302734 41.3336 1.26743 41.3336 2.78795V10.3636H18.667V2.78795C18.667 1.26731 17.4299 0.0302734 15.9094 0.0302734H12.1517C10.6311 0.0302734 9.39404 1.26743 9.39404 2.78795V3.97623C9.08384 3.85506 8.74681 3.7878 8.39419 3.7878H6.51531C4.99468 3.7878 3.75764 5.02495 3.75764 6.54547V10.3636H2.75779C1.23716 10.3636 0 11.6006 0 13.1212V16.8788C0 18.3994 1.23716 19.6364 2.75767 19.6364H3.75752V23.4546C3.75752 24.9752 4.99468 26.2122 6.51519 26.2122H8.39396C8.74657 26.2122 9.08361 26.145 9.39381 26.0238V27.2121C9.39381 28.7327 10.631 29.9697 12.1515 29.9697H15.9091C17.4298 29.9697 18.6668 28.7326 18.6668 27.2121V19.6364H41.3332V27.2121C41.3332 28.7327 42.5704 29.9697 44.0909 29.9697H47.8485C49.3692 29.9697 50.6062 28.7326 50.6062 27.2121V26.0238C50.9164 26.145 51.2534 26.2122 51.606 26.2122H53.4848C55.0054 26.2122 56.2425 24.9751 56.2425 23.4546V19.6364H57.2423C58.763 19.6364 60 18.3993 60 16.8788V13.1212C60.0004 11.6006 58.7632 10.3636 57.2427 10.3636ZM3.75752 17.8787H2.75767V17.8786C2.2063 17.8786 1.75782 17.43 1.75782 16.8788V13.1212C1.75782 12.5699 2.20642 12.1214 2.75767 12.1214H3.75752V17.8787ZM15.9094 28.2119H12.1517C11.6003 28.2119 11.1519 27.7633 11.1519 27.2121V22.5151C11.1519 22.0297 10.7583 21.6361 10.273 21.6361C9.78756 21.6361 9.39404 22.0297 9.39404 22.5151V23.4544C9.39404 24.0058 8.94544 24.4543 8.39419 24.4543H6.51531C5.96394 24.4543 5.51546 24.0057 5.51546 23.4544V6.54535C5.51546 5.99398 5.96406 5.5455 6.51531 5.5455H8.39407C8.94544 5.5455 9.39392 5.9941 9.39392 6.54535V18.7578C9.39392 19.2432 9.78744 19.6367 10.2728 19.6367C10.7582 19.6367 11.1517 19.2432 11.1517 18.7578V2.78795C11.1517 2.23657 11.6003 1.7881 12.1516 1.7881H15.9092C16.4606 1.7881 16.9091 2.23669 16.9091 2.78795V27.2121H16.9092C16.9092 27.7634 16.4606 28.2119 15.9094 28.2119ZM41.3334 17.8786H18.667V12.1213H41.3334V17.8786ZM54.485 23.4546C54.485 24.0059 54.0364 24.4544 53.4852 24.4544H51.6064C51.055 24.4544 50.6065 24.0058 50.6065 23.4546V11.2421C50.6065 10.7567 50.213 10.3632 49.7276 10.3632C49.2422 10.3632 48.8487 10.7567 48.8487 11.2421V27.2122C48.8487 27.7636 48.4001 28.212 47.8489 28.212H44.0912C43.5399 28.212 43.0914 27.7634 43.0914 27.2122V2.78795C43.0914 2.23657 43.54 1.7881 44.0912 1.7881H47.8489C48.4002 1.7881 48.8487 2.23669 48.8487 2.78795V7.48497C48.8487 7.97036 49.2422 8.36388 49.7276 8.36388C50.213 8.36388 50.6065 7.97036 50.6065 7.48497V6.54558C50.6065 5.99421 51.0551 5.54574 51.6064 5.54574H53.4852C54.0365 5.54574 54.485 5.99433 54.485 6.54558V23.4546ZM58.2425 16.8788C58.2425 17.4301 57.7939 17.8786 57.2427 17.8786H56.2428V12.1213H57.2427C57.794 12.1213 58.2425 12.5699 58.2425 13.1211V16.8788Z"
                  fill="#222222"/>
        </g>
        <g id="spa">
            <path d="M39.6132 10.5808L29.5147 3.84851C29.2633 1.6886 27.4435 0 25.2174 0H14.7826C12.5565 0 10.7367 1.6886 10.4853 3.84851L0.386804 10.5808C0.145211 10.7426 0 11.0139 0 11.3043V32.1739C0 32.655 0.389776 33.0435 0.869565 33.0435H6.95652V39.1304C6.95652 39.6115 7.3463 40 7.82609 40H32.1739C32.655 40 33.0435 39.6115 33.0435 39.1304V33.0435H39.1304C39.6115 33.0435 40 32.655 40 32.1739V11.3043C40 11.0139 39.8548 10.7426 39.6132 10.5808ZM14.7826 1.73913H25.2174C26.5315 1.73913 27.6219 2.71569 27.801 3.98013L20.4348 10.5269L12.2036 3.95211C12.3939 2.70083 13.4783 1.73913 14.7826 1.73913ZM27.8261 6.28354V10.9129L13.913 23.2808V18.6515L21.0216 12.3331C21.0356 12.3208 21.0487 12.3094 21.0619 12.2975L27.8261 6.28354ZM12.1739 6.15489L19.1156 11.7001L16.3086 14.195L12.1739 10.887V6.15489ZM12.1739 38.2609H8.69565V29.5652H12.1739V38.2609ZM12.4652 17.6112C12.4592 17.6172 12.4567 17.6253 12.4503 17.6312C12.4028 17.6758 12.3705 17.7323 12.334 17.7862C12.3068 17.8269 12.272 17.8626 12.2529 17.9059C12.2329 17.9505 12.2287 18.0002 12.2164 18.0477C12.2007 18.1106 12.1799 18.1713 12.1782 18.2367C12.1782 18.2452 12.1739 18.2524 12.1739 18.2609V27.8261H8.69565V14.7826C8.69565 14.3015 8.30588 13.913 7.82609 13.913C7.3463 13.913 6.95652 14.3015 6.95652 14.7826V31.3043H1.73913V11.7697L10.4348 5.97232V11.3043C10.4348 11.5689 10.5549 11.8181 10.7609 11.9833L14.9894 15.3668L12.4652 17.6112ZM31.3043 38.2609H13.913V29.5652H31.3043V38.2609ZM38.2609 31.3043H33.0435V14.7826C33.0435 14.3015 32.655 13.913 32.1739 13.913C31.6928 13.913 31.3043 14.3015 31.3043 14.7826V27.8261H13.913V25.608L29.2731 11.954C29.4591 11.7897 29.5652 11.5523 29.5652 11.3043V5.97232L38.2609 11.7697V31.3043Z"
                  fill="#222222"/>
        </g>
        <g id="school">
            <path d="M56.6143 21.857L29.4268 7.35696C29.1595 7.21467 28.8414 7.21467 28.5741 7.35696L1.38656 21.857C1.09022 22.0146 0.90625 22.3219 0.90625 22.6563C0.90625 22.9907 1.09022 23.2979 1.38566 23.4556L9.0625 27.55V38.9688H10.875V28.517L13.5938 29.967V35.4725C12.0341 35.8775 10.875 37.284 10.875 38.9688C10.875 39.7971 11.165 40.552 11.6344 41.1637C11.1396 42.8557 10.875 44.6002 10.875 46.3656V48.9375C10.875 49.281 11.0689 49.5945 11.3762 49.7486L12.3776 50.2498C13.0337 50.5769 13.7668 50.75 14.5 50.75C15.2332 50.75 15.9663 50.5769 16.6224 50.2489L17.6238 49.7477C17.9311 49.5945 18.125 49.281 18.125 48.9375V46.3656C18.125 44.6002 17.8604 42.8557 17.3656 41.1637C17.835 40.552 18.125 39.7971 18.125 38.9688C18.125 37.284 16.9659 35.8775 15.4062 35.4725V30.934L28.5732 37.9565C28.7073 38.0272 28.8532 38.0625 29 38.0625C29.1468 38.0625 29.2927 38.0272 29.4268 37.9565L47.125 28.517V38.5211C42.0844 42.3192 35.8585 44.4063 29.5428 44.4063H28.4581C25.3469 44.4063 22.2711 43.9124 19.3149 42.9381L18.7485 44.66C21.8859 45.694 25.1539 46.2188 28.4572 46.2188H29.5419C36.4059 46.2188 43.1692 43.8979 48.5877 39.6838C48.8079 39.5125 48.9375 39.2488 48.9375 38.9688V27.55L56.6143 23.4556C56.9098 23.2979 57.0938 22.9907 57.0938 22.6563C57.0938 22.3219 56.9098 22.0146 56.6143 21.857ZM16.3125 48.3775L15.8113 48.6276C15.0003 49.0327 13.9988 49.0327 13.1877 48.6276L12.6875 48.3775V46.3656C12.6875 45.0035 12.8533 43.6541 13.1805 42.3364C13.5901 42.4977 14.0333 42.5938 14.5 42.5938C14.9667 42.5938 15.4099 42.4977 15.8195 42.3364C16.1467 43.6541 16.3125 45.0035 16.3125 46.3656V48.3775ZM16.3125 38.9688C16.3125 39.9684 15.4996 40.7813 14.5 40.7813C13.5004 40.7813 12.6875 39.9684 12.6875 38.9688C12.6875 37.9692 13.5004 37.1563 14.5 37.1563C15.4996 37.1563 16.3125 37.9692 16.3125 38.9688ZM29 36.1286L16.0297 29.2112L27.2573 23.2236C27.7729 23.4338 28.3602 23.5625 29 23.5625C31.0327 23.5625 32.625 22.3681 32.625 20.8438C32.625 19.3195 31.0327 18.125 29 18.125C26.9673 18.125 25.375 19.3195 25.375 20.8438C25.375 21.2579 25.501 21.644 25.713 21.9929L14.104 28.1844L3.73828 22.6563L29 9.18305L54.2617 22.6563L29 36.1286ZM27.1875 20.8438C27.1875 20.474 27.8935 19.9375 29 19.9375C30.1065 19.9375 30.8125 20.474 30.8125 20.8438C30.8125 21.2135 30.1065 21.75 29 21.75C27.8935 21.75 27.1875 21.2135 27.1875 20.8438Z"
                  fill="#222222"/>
        </g>
        <g id="shopping">
            <g clip-path="url(#clip0)">
                <path d="M25.8945 4.94272C25.4924 2.12506 23.0389 0 20.1878 0C18.3542 0 16.6128 0.884466 15.5302 2.36679C15.309 2.66909 15.3752 3.09315 15.6776 3.31422C15.979 3.53449 16.4042 3.46914 16.625 3.16644C17.4537 2.0329 18.7854 1.356 20.1876 1.356C22.3681 1.356 24.244 2.98033 24.5516 5.134C24.6 5.47225 24.8903 5.71636 25.2224 5.71636C25.2539 5.71636 25.2865 5.71397 25.3189 5.7096C25.6897 5.65657 25.9474 5.31315 25.8945 4.94272Z"
                      fill="#222222"/>
                <path d="M35.6902 12.5322L33.6556 9.14235C33.5332 8.93797 33.3124 8.81323 33.074 8.81323H31.1242C30.7498 8.81323 30.446 9.11693 30.446 9.49113C30.446 9.86534 30.7498 10.169 31.1242 10.169H32.6901L33.9109 12.2029H6.46476L7.68555 10.169H8.40384C8.77818 10.169 9.08199 9.86534 9.08199 9.49113C9.08199 9.11693 8.77818 8.81323 8.40384 8.81323H7.30167C7.06323 8.81323 6.84248 8.93797 6.72008 9.14235L4.68543 12.5322C4.55966 12.742 4.55668 13.0028 4.67689 13.2153C4.7971 13.4278 5.02242 13.5593 5.26702 13.5593H35.1086C35.3532 13.5593 35.5783 13.4278 35.6988 13.2153C35.8192 13.0028 35.816 12.7416 35.6902 12.5322Z"
                      fill="#222222"/>
                <path d="M32.3093 6.28101C32.2143 6.12787 32.0627 6.01922 31.8875 5.97831L22.6419 3.8167C22.4669 3.77558 22.2825 3.80617 22.1295 3.90071C21.9769 3.99566 21.868 4.1472 21.8271 4.32239L21.1298 7.30173C21.0444 7.6662 21.2709 8.03087 21.6357 8.11588C22.0003 8.20129 22.3655 7.97486 22.4506 7.61019L22.9934 5.29127L30.918 7.14422L29.6728 12.4663C29.5874 12.8308 29.8139 13.1955 30.1787 13.2805C30.2309 13.2926 30.2828 13.2983 30.3341 13.2983C30.642 13.2983 30.9208 13.0874 30.9933 12.775L32.3931 6.79286C32.4345 6.61787 32.4043 6.43355 32.3093 6.28101Z"
                      fill="#222222"/>
                <path d="M20.5466 7.88386L19.9287 2.65909C19.9076 2.48053 19.8164 2.31746 19.6749 2.20623C19.5335 2.095 19.3548 2.04415 19.1754 2.06521L7.83185 3.40551C7.46009 3.44961 7.19423 3.78647 7.23814 4.15849L8.26838 12.8727C8.30931 13.2177 8.60199 13.4713 8.94117 13.4713C8.96759 13.4713 8.99482 13.4695 9.02184 13.4665C9.3934 13.4224 9.65926 13.0856 9.61554 12.7136L8.66478 4.67213L18.6614 3.49112L19.1995 8.04256C19.2436 8.41438 19.579 8.67854 19.9527 8.63644C20.3245 8.59274 20.5903 8.25568 20.5466 7.88386Z"
                      fill="#222222"/>
                <path d="M25.91 12.6237L24.5639 7.0277C24.5217 6.85311 24.4119 6.70196 24.2587 6.60801C24.1055 6.51486 23.9217 6.48566 23.7458 6.52737L12.8201 9.15396C12.4559 9.24135 12.2318 9.60761 12.3192 9.97168L12.992 12.7687C13.0794 13.1332 13.4458 13.3574 13.8098 13.2694C14.174 13.182 14.3982 12.8158 14.3107 12.4517L13.7963 10.3137L23.4033 8.00453L24.5909 12.9411C24.6654 13.2519 24.9436 13.4605 25.2498 13.4605C25.3024 13.4605 25.3557 13.4543 25.4091 13.4414C25.7733 13.3538 25.9975 12.9878 25.91 12.6237Z"
                      fill="#222222"/>
                <path d="M35.7865 12.8468C35.7679 12.4865 35.4702 12.2036 35.109 12.2036H5.26737C4.90614 12.2036 4.60849 12.4863 4.58982 12.8468L3.23332 39.2874C3.22378 39.4729 3.29094 39.6544 3.4189 39.7891C3.54706 39.9236 3.72469 40 3.91067 40H36.4651C36.6509 40 36.8287 39.9238 36.9574 39.7891C37.0852 39.6544 37.1524 39.4731 37.143 39.2874L35.7865 12.8468ZM4.62439 38.644L5.91134 13.5594H34.4642L35.7512 38.644H4.62439Z"
                      fill="#222222"/>
                <path d="M25.2744 14.9153C24.1524 14.9153 23.2397 15.8276 23.2397 16.9492C23.2397 18.0708 24.1524 18.9831 25.2744 18.9831C26.3964 18.9831 27.3091 18.0708 27.3091 16.9492C27.3091 15.8276 26.3964 14.9153 25.2744 14.9153ZM25.2744 17.6273C24.9003 17.6273 24.5962 17.3232 24.5962 16.9494C24.5962 16.5756 24.9005 16.2715 25.2744 16.2715C25.6483 16.2715 25.9526 16.5756 25.9526 16.9494C25.9526 17.3232 25.6483 17.6273 25.2744 17.6273Z"
                      fill="#222222"/>
                <path d="M15.1011 14.9153C13.979 14.9153 13.0664 15.8276 13.0664 16.9492C13.0664 18.0708 13.979 18.9831 15.1011 18.9831C16.2231 18.9831 17.1357 18.0708 17.1357 16.9492C17.1357 15.8276 16.2231 14.9153 15.1011 14.9153ZM15.1011 17.6273C14.7271 17.6273 14.4229 17.3232 14.4229 16.9494C14.4229 16.5756 14.7271 16.2715 15.1011 16.2715C15.475 16.2715 15.7792 16.5756 15.7792 16.9494C15.7792 17.3232 15.475 17.6273 15.1011 17.6273Z"
                      fill="#222222"/>
                <path d="M25.2743 16.949H25.222C24.8477 16.949 24.5438 17.2527 24.5438 17.6269C24.5438 17.7194 24.5621 17.8078 24.5961 17.8883V21.3556C24.5961 23.7854 22.6185 25.7624 20.1876 25.7624C17.7568 25.7624 15.7792 23.7856 15.7792 21.3556V17.6271C15.7792 17.2529 15.4753 16.9492 15.101 16.9492C14.7267 16.9492 14.4229 17.2529 14.4229 17.6271V21.3558C14.4229 24.5334 17.0089 27.1184 20.1876 27.1184C23.3664 27.1184 25.9524 24.5334 25.9524 21.3558V17.6271C25.9524 17.2529 25.6486 16.949 25.2743 16.949Z"
                      fill="#222222"/>
            </g>
            <defs>
                <clipPath id="clip0">
                    <rect width="40.0149" height="40" fill="white" transform="translate(0.180664)"/>
                </clipPath>
            </defs>
        </g>
        <g id="news-author">
            <path d="M13.8102 9.52183C13.313 9.08501 12.7102 8.70758 12.0181 8.40008C11.7223 8.2687 11.3761 8.40191 11.2447 8.69762C11.1134 8.99334 11.2466 9.33952 11.5423 9.47102C12.1258 9.73034 12.6287 10.0436 13.0367 10.4021C13.5396 10.8441 13.8281 11.484 13.8281 12.1582V13.2422C13.8281 13.5653 13.5653 13.8281 13.2422 13.8281H1.75781C1.43475 13.8281 1.17188 13.5653 1.17188 13.2422V12.1582C1.17188 11.484 1.46038 10.8441 1.96335 10.4021C2.55535 9.88186 4.2802 8.67188 7.5 8.67188C9.89079 8.67188 11.8359 6.72672 11.8359 4.33594C11.8359 1.94515 9.89079 0 7.5 0C5.10921 0 3.16406 1.94515 3.16406 4.33594C3.16406 5.7336 3.82896 6.97872 4.85893 7.77214C2.97432 8.18642 1.80199 8.98384 1.18984 9.52183C0.433731 10.1862 0 11.147 0 12.1582V13.2422C0 14.2115 0.788498 15 1.75781 15H13.2422C14.2115 15 15 14.2115 15 13.2422V12.1582C15 11.147 14.5663 10.1862 13.8102 9.52183ZM4.33594 4.33594C4.33594 2.59129 5.75535 1.17188 7.5 1.17188C9.24465 1.17188 10.6641 2.59129 10.6641 4.33594C10.6641 6.08059 9.24465 7.5 7.5 7.5C5.75535 7.5 4.33594 6.08059 4.33594 4.33594Z" fill="#717171"/>
        </g>
        <g id="news-date">
            <path d="M13.0664 1.17188H11.7188V0.46875C11.7188 0.209883 11.5089 0 11.25 0C10.9911 0 10.7812 0.209883 10.7812 0.46875V1.17188H4.21875V0.46875C4.21875 0.209883 4.0089 0 3.75 0C3.4911 0 3.28125 0.209883 3.28125 0.46875V1.17188H1.93359C0.867393 1.17188 0 2.03927 0 3.10547V13.0664C0 14.1326 0.867393 15 1.93359 15H13.0664C14.1326 15 15 14.1326 15 13.0664V3.10547C15 2.03927 14.1326 1.17188 13.0664 1.17188ZM1.93359 2.10938H3.28125V2.57812C3.28125 2.83699 3.4911 3.04688 3.75 3.04688C4.0089 3.04688 4.21875 2.83699 4.21875 2.57812V2.10938H10.7812V2.57812C10.7812 2.83699 10.9911 3.04688 11.25 3.04688C11.5089 3.04688 11.7188 2.83699 11.7188 2.57812V2.10938H13.0664C13.6157 2.10938 14.0625 2.55621 14.0625 3.10547V4.21875H0.9375V3.10547C0.9375 2.55621 1.38434 2.10938 1.93359 2.10938ZM13.0664 14.0625H1.93359C1.38434 14.0625 0.9375 13.6157 0.9375 13.0664V5.15625H14.0625V13.0664C14.0625 13.6157 13.6157 14.0625 13.0664 14.0625Z" fill="#717171"/>
        </g>
    </defs>
</svg>