<svg xmlns="http://www.w3.org/2000/svg">
    <defs>
        <g id="logo">
            <path d="M10.8489 13.2417H7.13961V20.1376C7.13961 20.7073 7.28798 21.127 7.55505 21.3969C7.85179 21.6667 8.26723 21.8166 8.80136 21.8466C9.3355 21.8766 10.018 21.8766 10.8192 21.8166V25.6843C7.91114 26.0141 5.86362 25.7443 4.67665 24.8448C3.48968 23.9753 2.8962 22.3863 2.8962 20.1076V13.2117H0.0771484V9.13407H2.92587V5.80603L7.16928 4.51678V9.16405H10.8786V13.2417H10.8489Z"
                  fill="black"/>
            <path d="M22.9562 8.6843C24.7366 8.6843 26.2203 9.28395 27.4073 10.5132C28.5646 11.7425 29.1581 13.3915 29.1581 15.5503V25.6843H24.9147V16.06C24.9147 14.9506 24.6179 14.1111 24.0244 13.5115C23.431 12.9118 22.6594 12.642 21.6505 12.642C20.5526 12.642 19.692 12.9718 19.0392 13.6614C18.3863 14.351 18.0599 15.3704 18.0599 16.7496V25.6843H13.8462V2.50793H18.0896V10.9929C19.0985 9.43386 20.7306 8.6843 22.9562 8.6843Z"
                  fill="black"/>
            <path d="M36.3389 19.1782C36.9027 21.2469 38.4458 22.2963 40.9681 22.2963C42.5705 22.2963 43.8168 21.7566 44.6477 20.6473L48.0602 22.6261C46.4282 24.9947 44.0542 26.164 40.9088 26.164C38.2084 26.164 36.0125 25.3245 34.3804 23.6755C32.7484 22.0265 31.9175 19.9277 31.9175 17.4092C31.9175 14.9207 32.7187 12.8219 34.3508 11.1729C35.9532 9.49385 38.0304 8.68433 40.5823 8.68433C42.986 8.68433 44.9741 9.52383 46.5469 11.2028C48.1196 12.8819 48.8911 14.9506 48.8911 17.4392C48.8911 17.9789 48.8318 18.5785 48.7131 19.2081L36.3389 19.1782ZM36.2499 15.8501H44.618C44.3806 14.7108 43.8762 13.8713 43.1343 13.3316C42.3925 12.7919 41.5319 12.4921 40.5527 12.4921C39.4251 12.4921 38.4755 12.7919 37.7336 13.3616C36.9918 13.9912 36.517 14.8007 36.2499 15.8501Z"
                  fill="black"/>
            <path d="M55.2413 19.1782C55.8051 21.2469 57.3481 22.2963 59.8705 22.2963C61.4729 22.2963 62.7192 21.7566 63.5501 20.6473L66.9626 22.6261C65.3305 24.9947 62.9566 26.164 59.8111 26.164C57.1108 26.164 54.9149 25.3245 53.2828 23.6755C51.6507 22.0265 50.8198 19.9277 50.8198 17.4092C50.8198 14.9207 51.621 12.8219 53.2531 11.1729C54.8555 9.49385 56.9327 8.68433 59.4847 8.68433C61.8883 8.68433 63.8765 9.52383 65.4492 11.2028C67.0219 12.8819 67.7935 14.9506 67.7935 17.4392C67.7935 17.9789 67.7341 18.5785 67.6154 19.2081L55.2413 19.1782ZM55.1819 15.8501H63.5501C63.3127 14.7108 62.8082 13.8713 62.0663 13.3316C61.3245 12.7919 60.4639 12.4921 59.4847 12.4921C58.3571 12.4921 57.4075 12.7919 56.6656 13.3616C55.9238 13.9912 55.4193 14.8007 55.1819 15.8501Z"
                  fill="black"/>
            <path d="M80.7614 9.13403H85.2719L79.3074 25.6843C78.4468 28.0829 77.3192 29.7919 75.9245 30.8713C74.5001 31.9506 72.7494 32.4303 70.6722 32.3104V28.3527C71.7998 28.3827 72.7197 28.1429 73.3725 27.6332C74.0253 27.1235 74.5595 26.3139 74.9749 25.1746L68.2686 9.13403H72.8977L77.1708 20.2575L80.7614 9.13403Z"
                  fill="black"/>
            <path d="M90.1978 19.1782C90.7616 21.2469 92.3047 22.2963 94.827 22.2963C96.4294 22.2963 97.6757 21.7566 98.5066 20.6473L101.919 22.6261C100.287 24.9947 97.9131 26.164 94.7677 26.164C92.0673 26.164 89.8714 25.3245 88.2393 23.6755C86.6073 22.0265 85.7764 19.9277 85.7764 17.4092C85.7764 14.9207 86.5776 12.8219 88.2097 11.1729C89.8121 9.49385 91.8893 8.68433 94.4412 8.68433C96.8449 8.68433 98.833 9.52383 100.376 11.2028C101.949 12.8819 102.72 14.9506 102.72 17.4392C102.72 17.9789 102.661 18.5785 102.542 19.2081L90.1978 19.1782ZM90.1088 15.8501H98.4769C98.2395 14.7108 97.7351 13.8713 96.9932 13.3316C96.2514 12.7919 95.3908 12.4921 94.4116 12.4921C93.2839 12.4921 92.3344 12.7919 91.5925 13.3616C90.8507 13.9912 90.3759 14.8007 90.1088 15.8501Z"
                  fill="black"/>
            <path d="M110.643 2.80776C115.332 5.26632 119.486 10.4233 121.504 15.1605C118.626 11.8624 116.341 9.79366 112.839 7.72487C111.237 6.79542 108.358 5.53616 106.4 5.08642C101.652 4.03704 99.1297 4.57672 95.4204 3.7672C93.5212 3.34745 94.3224 2.11817 95.3314 1.51852C99.4561 -0.850084 106.073 0.409175 110.643 2.80776Z"
                  fill="black"/>
        </g>
        <g id="sign-in">
            <path d="M9.41202 7.41891C10.4358 6.67225 11.1025 5.46387 11.1025 4.10256C11.1025 1.84041 9.26208 0 6.99993 0C4.73777 0 2.89737 1.84041 2.89737 4.10256C2.89737 5.46387 3.56402 6.67225 4.58784 7.41891C2.04284 8.39281 0.230713 10.8603 0.230713 13.7436C0.230713 14.9878 1.24293 16 2.48712 16H11.5127C12.7569 16 13.7691 14.9878 13.7691 13.7436C13.7691 10.8603 11.957 8.39281 9.41202 7.41891ZM4.12815 4.10256C4.12815 2.51906 5.41643 1.23078 6.99993 1.23078C8.58343 1.23078 9.87171 2.51906 9.87171 4.10256C9.87171 5.68606 8.58343 6.97437 6.99993 6.97437C5.41643 6.97437 4.12815 5.68606 4.12815 4.10256ZM11.5127 14.7692H2.48712C1.92159 14.7692 1.46149 14.3091 1.46149 13.7436C1.46149 10.6896 3.94599 8.20509 6.99996 8.20509C10.0539 8.20509 12.5384 10.6896 12.5384 13.7436C12.5384 14.3091 12.0783 14.7692 11.5127 14.7692Z"
                  fill="white"/>
        </g>

        <g id="search">
            <g clip-path="url(#clip0)">
                <path d="M8.80758 0C3.95121 0 0 3.95121 0 8.80758C0 13.6642 3.95121 17.6152 8.80758 17.6152C13.6642 17.6152 17.6152 13.6642 17.6152 8.80758C17.6152 3.95121 13.6642 0 8.80758 0ZM8.80758 15.9892C4.8477 15.9892 1.62602 12.7675 1.62602 8.80762C1.62602 4.84773 4.8477 1.62602 8.80758 1.62602C12.7675 1.62602 15.9891 4.8477 15.9891 8.80758C15.9891 12.7675 12.7675 15.9892 8.80758 15.9892Z"
                      fill="white"/>
                <path d="M19.7617 18.6122L15.1005 13.951C14.7829 13.6333 14.2685 13.6333 13.9509 13.951C13.6332 14.2683 13.6332 14.7832 13.9509 15.1006L18.6121 19.7618C18.7709 19.9206 18.9788 20 19.1869 20C19.3948 20 19.6029 19.9206 19.7617 19.7618C20.0794 19.4445 20.0794 18.9296 19.7617 18.6122Z"
                      fill="white"/>
            </g>
            <defs>
                <clipPath id="clip0">
                    <rect width="20" height="20" fill="white"/>
                </clipPath>
            </defs>
        </g>

        <g id="search2">
            <path d="M8.80758 0C3.95121 0 0 3.95121 0 8.80758C0 13.6642 3.95121 17.6152 8.80758 17.6152C13.6642 17.6152 17.6152 13.6642 17.6152 8.80758C17.6152 3.95121 13.6642 0 8.80758 0ZM8.80758 15.9892C4.8477 15.9892 1.62602 12.7675 1.62602 8.80762C1.62602 4.84773 4.8477 1.62602 8.80758 1.62602C12.7675 1.62602 15.9891 4.8477 15.9891 8.80758C15.9891 12.7675 12.7675 15.9892 8.80758 15.9892Z"
                  fill="#222222"/>
            <path d="M19.762 18.6121L15.1007 13.9509C14.7831 13.6332 14.2687 13.6332 13.9511 13.9509C13.6335 14.2682 13.6335 14.7831 13.9511 15.1005L18.6124 19.7617C18.7712 19.9205 18.9791 19.9999 19.1872 19.9999C19.395 19.9999 19.6032 19.9205 19.762 19.7617C20.0796 19.4444 20.0796 18.9295 19.762 18.6121Z"
                  fill="#222222"/>
        </g>

        <g id="header-avatar">
            <path d="M13.0152 9.27363C14.2949 8.34031 15.1283 6.82984 15.1283 5.1282C15.1283 2.30051 12.8278 0 10.0001 0C7.1724 0 4.87189 2.30051 4.87189 5.1282C4.87189 6.82984 5.70521 8.34031 6.98498 9.27363C3.80373 10.491 1.53857 13.5754 1.53857 17.1795C1.53857 18.7347 2.80385 20 4.35908 20H15.6411C17.1963 20 18.4616 18.7347 18.4616 17.1795C18.4616 13.5754 16.1965 10.491 13.0152 9.27363ZM6.41037 5.1282C6.41037 3.14883 8.02072 1.53848 10.0001 1.53848C11.9795 1.53848 13.5898 3.14883 13.5898 5.1282C13.5898 7.10758 11.9795 8.71797 10.0001 8.71797C8.02072 8.71797 6.41037 7.10758 6.41037 5.1282ZM15.6411 18.4615H4.35908C3.65217 18.4615 3.07705 17.8864 3.07705 17.1795C3.07705 13.362 6.18267 10.2564 10.0001 10.2564C13.8176 10.2564 16.9232 13.362 16.9232 17.1795C16.9232 17.8864 16.3481 18.4615 15.6411 18.4615Z"
                  fill="#222222"/>
        </g>

        <g id="header-burger">
            <rect x="20" y="18" width="20" height="2" transform="rotate(-180 20 18)" fill="#222222"/>
            <rect x="20" y="10" width="20" height="2" transform="rotate(-180 20 10)" fill="#222222"/>
            <rect x="20" y="2" width="15" height="2" transform="rotate(-180 20 2)" fill="#222222"/>
        </g>
        <g>

        </g>

    </defs>
</svg>