<svg width="25" height="25" viewBox="0 0 25 25" fill="none" xmlns="http://www.w3.org/2000/svg">
<g clip-path="url(#clip0)">
<path d="M16.0653 3.0892C15.8141 1.32816 14.2812 0 12.4999 0C11.3544 0 10.2664 0.552791 9.58998 1.47924C9.45181 1.66818 9.49315 1.93322 9.68209 2.07138C9.87041 2.20906 10.1361 2.16821 10.274 1.97903C10.7918 1.27056 11.6238 0.847498 12.4998 0.847498C13.8621 0.847498 15.0341 1.86271 15.2263 3.20875C15.2566 3.42016 15.4379 3.57272 15.6454 3.57272C15.6651 3.57272 15.6855 3.57123 15.7057 3.5685C15.9373 3.53536 16.0983 3.32072 16.0653 3.0892Z" fill="#222222"/>
<path d="M22.1853 7.83268L20.9141 5.714C20.8376 5.58626 20.6997 5.5083 20.5507 5.5083H19.3326C19.0987 5.5083 18.9089 5.69811 18.9089 5.93199C18.9089 6.16587 19.0987 6.35567 19.3326 6.35567H20.3109L21.0736 7.62686H3.92615L4.68886 6.35567H5.13762C5.3715 6.35567 5.56131 6.16587 5.56131 5.93199C5.56131 5.69811 5.3715 5.5083 5.13762 5.5083H4.44902C4.30006 5.5083 4.16214 5.58626 4.08567 5.714L2.81448 7.83268C2.7359 7.96377 2.73404 8.12677 2.80914 8.2596C2.88425 8.39242 3.02502 8.4746 3.17784 8.4746H21.8219C21.9747 8.4746 22.1154 8.39242 22.1906 8.2596C22.2658 8.12677 22.2639 7.96352 22.1853 7.83268Z" fill="#222222"/>
<path d="M20.0732 3.92568C20.0139 3.82997 19.9192 3.76207 19.8097 3.73649L14.0334 2.38549C13.924 2.35979 13.8088 2.37891 13.7132 2.438C13.6179 2.49734 13.5498 2.59206 13.5243 2.70155L13.0887 4.56363C13.0353 4.79143 13.1768 5.01935 13.4047 5.07248C13.6325 5.12586 13.8607 4.98434 13.9138 4.75642L14.253 3.3071L19.204 4.46519L18.426 7.7915C18.3726 8.01929 18.5142 8.24721 18.7421 8.30034C18.7747 8.30792 18.8071 8.31152 18.8391 8.31152C19.0316 8.31152 19.2057 8.17968 19.251 7.98441L20.1256 4.24559C20.1514 4.13622 20.1326 4.02102 20.0732 3.92568Z" fill="#222222"/>
<path d="M12.7239 4.92736L12.3379 1.66188C12.3247 1.55028 12.2677 1.44836 12.1793 1.37884C12.0909 1.30932 11.9793 1.27754 11.8672 1.2907L4.78014 2.12839C4.54788 2.15595 4.38178 2.36649 4.40921 2.599L5.05287 8.04536C5.07845 8.26099 5.2613 8.41951 5.47321 8.41951C5.48972 8.41951 5.50673 8.4184 5.52361 8.41654C5.75575 8.38898 5.92185 8.17844 5.89454 7.94592L5.30053 2.92003L11.5461 2.1819L11.8823 5.02654C11.9098 5.25893 12.1194 5.42404 12.3529 5.39772C12.5851 5.37041 12.7512 5.15975 12.7239 4.92736Z" fill="#222222"/>
<path d="M16.0752 7.88974L15.2341 4.39225C15.2078 4.28313 15.1392 4.18866 15.0435 4.12995C14.9478 4.07173 14.8329 4.05348 14.7231 4.07955L7.89703 5.72116C7.66948 5.77578 7.52945 6.00469 7.58408 6.23224L8.00441 7.98037C8.05903 8.20816 8.28794 8.34831 8.51537 8.29332C8.74291 8.2387 8.88294 8.00979 8.82832 7.78224L8.50693 6.44601L14.5091 5.00277L15.251 8.08812C15.2976 8.2824 15.4714 8.41274 15.6627 8.41274C15.6956 8.41274 15.7288 8.40889 15.7622 8.40082C15.9898 8.34608 16.1298 8.11729 16.0752 7.88974Z" fill="#222222"/>
<path d="M22.2453 8.02928C22.2336 7.80409 22.0476 7.62732 21.8219 7.62732H3.17786C2.95218 7.62732 2.76622 7.80397 2.75455 8.02928L1.90705 24.5547C1.90109 24.6706 1.94305 24.7841 2.023 24.8683C2.10307 24.9523 2.21405 25.0001 2.33024 25.0001H22.6692C22.7853 25.0001 22.8964 24.9524 22.9768 24.8683C23.0566 24.7841 23.0986 24.6707 23.0928 24.5547L22.2453 8.02928ZM2.77615 24.1526L3.5802 8.47469H21.4191L22.2232 24.1526H2.77615Z" fill="#222222"/>
<path d="M15.6777 9.32202C14.9767 9.32202 14.4065 9.89219 14.4065 10.5932C14.4065 11.2942 14.9767 11.8644 15.6777 11.8644C16.3787 11.8644 16.9489 11.2942 16.9489 10.5932C16.9489 9.89219 16.3787 9.32202 15.6777 9.32202ZM15.6777 11.017C15.4439 11.017 15.254 10.827 15.254 10.5933C15.254 10.3597 15.4441 10.1696 15.6777 10.1696C15.9113 10.1696 16.1014 10.3597 16.1014 10.5933C16.1014 10.827 15.9113 11.017 15.6777 11.017Z" fill="#222222"/>
<path d="M9.32197 9.32202C8.62095 9.32202 8.05078 9.89219 8.05078 10.5932C8.05078 11.2942 8.62095 11.8644 9.32197 11.8644C10.023 11.8644 10.5932 11.2942 10.5932 10.5932C10.5932 9.89219 10.023 9.32202 9.32197 9.32202ZM9.32197 11.017C9.08834 11.017 8.89828 10.827 8.89828 10.5933C8.89828 10.3597 9.08834 10.1696 9.32197 10.1696C9.5556 10.1696 9.74565 10.3597 9.74565 10.5933C9.74565 10.827 9.5556 11.017 9.32197 11.017Z" fill="#222222"/>
<path d="M15.6778 10.5931H15.6452C15.4113 10.5931 15.2215 10.7829 15.2215 11.0168C15.2215 11.0747 15.2329 11.1299 15.2541 11.1802V13.3473C15.2541 14.8659 14.0186 16.1016 12.4998 16.1016C10.9811 16.1016 9.74557 14.866 9.74557 13.3473V11.017C9.74557 10.7831 9.55576 10.5933 9.32188 10.5933C9.088 10.5933 8.89819 10.7831 8.89819 11.017V13.3474C8.89819 15.3334 10.5139 16.9491 12.4998 16.9491C14.4858 16.9491 16.1015 15.3334 16.1015 13.3474V11.017C16.1015 10.7831 15.9117 10.5931 15.6778 10.5931Z" fill="#222222"/>
</g>
<defs>
<clipPath id="clip0">
<rect width="25" height="25" fill="white"/>
</clipPath>
</defs>
</svg>
