<svg width="25" height="25" viewBox="0 0 25 25" fill="none" xmlns="http://www.w3.org/2000/svg">
<path d="M24.7582 6.61303L18.4467 2.40532C18.2896 1.05538 17.1522 0 15.7609 0H9.23913C7.84779 0 6.71042 1.05538 6.55332 2.40532L0.241752 6.61303C0.0907567 6.71413 0 6.8837 0 7.06522V20.1087C0 20.4094 0.24361 20.6522 0.543478 20.6522H4.34783V24.4565C4.34783 24.7572 4.59144 25 4.8913 25H20.1087C20.4094 25 20.6522 24.7572 20.6522 24.4565V20.6522H24.4565C24.7572 20.6522 25 20.4094 25 20.1087V7.06522C25 6.8837 24.9092 6.71413 24.7582 6.61303ZM9.23913 1.08696H15.7609C16.5822 1.08696 17.2637 1.69731 17.3756 2.48758L12.7717 6.57932L7.62727 2.47007C7.74616 1.68802 8.42391 1.08696 9.23913 1.08696ZM17.3913 3.92721V6.82055L8.69565 14.5505V11.6572L13.1385 7.70821C13.1472 7.70051 13.1555 7.69335 13.1637 7.68592L17.3913 3.92721ZM7.6087 3.84681L11.9472 7.31254L10.1929 8.87186L7.6087 6.80436V3.84681ZM7.6087 23.913H5.43478V18.4783H7.6087V23.913ZM7.79074 11.007C7.78702 11.0107 7.78543 11.0158 7.78145 11.0195C7.75173 11.0474 7.73156 11.0827 7.70874 11.1164C7.69176 11.1418 7.67 11.1641 7.65805 11.1912C7.64558 11.2191 7.64293 11.2501 7.63523 11.2798C7.62541 11.3191 7.61241 11.357 7.61135 11.3979C7.61135 11.4032 7.6087 11.4077 7.6087 11.413V17.3913H5.43478V9.23913C5.43478 8.93847 5.19117 8.69565 4.8913 8.69565C4.59144 8.69565 4.34783 8.93847 4.34783 9.23913V19.5652H1.08696V7.35606L6.52174 3.7327V7.06522C6.52174 7.23054 6.59684 7.38632 6.72554 7.48954L9.36837 9.60428L7.79074 11.007ZM19.5652 23.913H8.69565V18.4783H19.5652V23.913ZM23.913 19.5652H20.6522V9.23913C20.6522 8.93847 20.4094 8.69565 20.1087 8.69565C19.808 8.69565 19.5652 8.93847 19.5652 9.23913V17.3913H8.69565V16.005L18.2957 7.47123C18.4119 7.36854 18.4783 7.22019 18.4783 7.06522V3.7327L23.913 7.35606V19.5652Z" fill="#222222"/>
</svg>
