<svg width="26" height="26" viewBox="0 0 26 26" fill="none" xmlns="http://www.w3.org/2000/svg">
<g clip-path="url(#clip0)">
<path d="M12.5799 18.5325C11.681 18.5364 10.9526 19.271 10.9566 20.17C10.9605 21.0689 11.6951 21.7972 12.5941 21.7933C13.493 21.7894 14.2213 21.0547 14.2174 20.1558C14.2135 19.2569 13.4788 18.5286 12.5799 18.5325ZM12.5893 20.7063C12.2904 20.7076 12.0448 20.4641 12.0435 20.1652C12.0422 19.8663 12.2857 19.6206 12.5846 19.6193C12.8835 19.618 13.1291 19.8615 13.1304 20.1605C13.1317 20.4594 12.8882 20.705 12.5893 20.7063Z" fill="black"/>
<path d="M17.0527 15.7727C15.7896 14.7413 14.1326 14.1596 12.5001 14.1667C10.8675 14.1738 9.33749 14.7693 8.08439 15.8117C7.85263 16.0029 7.82151 16.3455 8.01379 16.5762C8.20499 16.8069 8.54753 16.8402 8.77821 16.6468C10.9021 14.8864 14.2282 14.872 16.3672 16.6138C16.4676 16.697 16.5906 16.7367 16.7123 16.7362C16.8678 16.7355 17.024 16.6674 17.1299 16.5365C17.3203 16.3042 17.2862 15.962 17.0527 15.7727Z" fill="black"/>
<path d="M20.9971 12.0153C18.6694 9.89611 15.6644 8.73632 12.5372 8.74992C9.41009 8.76352 6.41523 9.9494 4.10604 12.0888C3.88518 12.2919 3.87257 12.6366 4.07677 12.8563C4.28097 13.0772 4.62668 13.0887 4.84427 12.8856C6.95429 10.9318 9.68288 10.0124 12.5372 10C15.3916 9.98759 18.1389 10.8832 20.2659 12.8185C20.3706 12.9137 20.5023 12.961 20.6339 12.9604C20.7796 12.9598 20.926 12.9004 21.0331 12.7826C21.2354 12.5611 21.2198 12.2176 20.9971 12.0153Z" fill="black"/>
<path d="M24.8666 8.21262C21.4973 5.03379 17.1104 3.29525 12.5136 3.31524C7.9148 3.33523 3.54313 5.10641 0.205895 8.30249C-0.0127576 8.50887 -0.0189018 8.85348 0.188597 9.06994C0.394984 9.28859 0.740661 9.29361 0.956052 9.08724C4.09302 6.08555 8.19412 5.01878 12.5136 4.99999C16.831 4.98122 20.9559 6.01767 24.12 9.00281C24.2259 9.10237 24.3609 9.15177 24.4957 9.15118C24.6391 9.15056 24.7824 9.09343 24.8895 8.98097C25.095 8.76272 25.0849 8.41818 24.8666 8.21262Z" fill="black"/>
</g>
<defs>
<clipPath id="clip0">
<rect width="25" height="25" fill="white" transform="translate(0 0.108711) rotate(-0.249151)"/>
</clipPath>
</defs>
</svg>
